<svg id="Layer_1" data-name="Layer 1" xmlns="http://www.w3.org/2000/svg" viewBox="0 0 257 220.12"><defs><style>.cls-1{fill:#8fa9c1;}.cls-2{fill:#f4f4f4;}</style></defs><path class="cls-1" d="M235.33,334.92a3.9,3.9,0,0,1-2.89-1.47,5.82,5.82,0,0,1-.77-3.21,13.89,13.89,0,0,1,.15-1.63c.11-.74.22-1.66.36-2.74v-.81c0-.95-.17-1.5-.51-1.63a.8.8,0,0,0-.51-.1,6.43,6.43,0,0,0-2.64,1.32c-.07.07-.44.39-1.12,1l-3,2.5q-5.59,5-7.62,4.47a2.61,2.61,0,0,1-2.14-2.85,12.22,12.22,0,0,1,1.63-5.39,34.52,34.52,0,0,1,3.25-5.54,17.39,17.39,0,0,1,3.05-3.51,2.7,2.7,0,0,1,1.32-.51,1.28,1.28,0,0,1,.92.41.86.86,0,0,1,.2.61,1.42,1.42,0,0,1-.51.92,10.37,10.37,0,0,0-1.93,3.1,9.41,9.41,0,0,0-.91,3.71,2.56,2.56,0,0,0,0,.51,7.08,7.08,0,0,0,.15.71,2.17,2.17,0,0,0,1.12.31,7.54,7.54,0,0,0,3.35-1.22c.55-.34,1.29-.83,2.24-1.48s2.1-1.47,3.46-2.49a2.94,2.94,0,0,1,1.83-.61,2.54,2.54,0,0,1,1.88.76,2.83,2.83,0,0,1,.76,2.09,3.43,3.43,0,0,1-.05.56c0,.23-.08.52-.15.86-.14.54-.27,1.05-.41,1.53a10.26,10.26,0,0,0-.3,1.42,4.46,4.46,0,0,0-.1,1.07V329c0,1.49.78,2.24,2.34,2.24a6.51,6.51,0,0,0,2.08-.36,4,4,0,0,0,1.58-.86A59.14,59.14,0,0,0,251.1,319l-.11-1.22a3.52,3.52,0,0,1,.41-2,13.09,13.09,0,0,1,1.32-2,1,1,0,0,1,.82-.41,1.34,1.34,0,0,1,1,.46A1.55,1.55,0,0,1,255,315a2.58,2.58,0,0,1-.3,1.12c-.41.74-1.06,1.81-1.94,3.2s-1.9,2.9-3.05,4.53-2.3,3.15-3.46,4.57a25.88,25.88,0,0,1-3.15,3.36v.1a13,13,0,0,1-4,2.39A8.06,8.06,0,0,1,235.33,334.92Z" transform="translate(-177.77 -285.79)"/><path class="cls-1" d="M252.82,338.28c-1.42,0-2-.72-1.83-2.14a36.58,36.58,0,0,1,2.14-7.73c.54-1.35,1.24-2.91,2.08-4.68s1.85-3.72,3-5.89c.61-1.16,1.14-2.17,1.58-3.06l1.07-2.13c.47-.95,1-2,1.47-3s1-2.27,1.58-3.56q3.85-8.44,6.66-13.27a19.2,19.2,0,0,1,6.05-6.87c.13-.13.51-.15,1.12,0a11.92,11.92,0,0,1,1.78.46,1.79,1.79,0,0,1,1.06.71,5.26,5.26,0,0,1,.31,2q0,4.06-3.76,9.76a71.27,71.27,0,0,1-5.14,6.66q-3.11,3.61-7.27,7.78l-1.83,2.95a92.62,92.62,0,0,0-4.73,8.34,10.49,10.49,0,0,0-1.27,6.1c.14.4.31.61.51.61a2.29,2.29,0,0,0,1-.51,14.78,14.78,0,0,0,1.47-1.22,10.85,10.85,0,0,0,1.48-1.73,5.85,5.85,0,0,0,.86-1.12,10.44,10.44,0,0,1,.76-1.12,11.82,11.82,0,0,1,1.22-1.83,24.16,24.16,0,0,1,3.26-4.57q2.23-2.24,4-2.24a4.45,4.45,0,0,1,3.61,2.19,37.1,37.1,0,0,1,3.41,6.25,28.67,28.67,0,0,0,2.44,4.68c.75,1,1.46,1.52,2.14,1.52a3.74,3.74,0,0,0,2.34-1.22,4.16,4.16,0,0,1,2.13-1.22c.41.48.37,1.07-.1,1.78a8.14,8.14,0,0,1-2.09,2,16.84,16.84,0,0,1-2.69,1.57,3.19,3.19,0,0,1-2,.41,8.16,8.16,0,0,1-4.42-2.9,29.11,29.11,0,0,1-3.1-5.44c-.34-.74-.65-1.41-.92-2a7,7,0,0,0-.81-1.38,2.25,2.25,0,0,0-1.93-1,3.78,3.78,0,0,0-2.14.91,24.71,24.71,0,0,0-2.44,2.39,20.86,20.86,0,0,0-2.34,3.31c-.47.68-.83,1.2-1.06,1.57a5.56,5.56,0,0,1-.56.77c-.34.47-.87,1.17-1.58,2.08s-1.54,2.05-2.49,3.41a5.45,5.45,0,0,1-3.66,1.63Zm12.41-29.19c.2.14.71-.19,1.52-1a36.54,36.54,0,0,0,2.8-3.05q1.57-1.87,3.15-4a34.6,34.6,0,0,0,2.5-3.71q3.15-5.4,3.15-7.12a1.09,1.09,0,0,0-.51-1c-.68-.54-1.59-.25-2.75.86a24.58,24.58,0,0,0-3.45,4.38,41.85,41.85,0,0,0-2.95,5.34c-.48,1.08-1,2.3-1.48,3.66s-.93,2.56-1.27,3.61A18.07,18.07,0,0,1,265.23,309.09Z" transform="translate(-177.77 -285.79)"/><path class="cls-1" d="M290.25,353.12a4.32,4.32,0,0,1-3.67-2,8.2,8.2,0,0,1-1.42-4.78,7.09,7.09,0,0,1,.51-2.75c.54-1.15,1-1.73,1.32-1.73s.41.21.41.61a3.92,3.92,0,0,1-.31,1.33c-.06.2-.11.39-.15.56a2.58,2.58,0,0,0-.05.45,7.82,7.82,0,0,0,1.07,3.77,3.12,3.12,0,0,0,2.69,1.93l.82-.21a10.33,10.33,0,0,0,4.62-2.69,33.47,33.47,0,0,0,4.32-5.14,62.66,62.66,0,0,0,5.09-9,97.85,97.85,0,0,0,3.86-9.61,73.81,73.81,0,0,0,2.44-8.65c0-.34-.13-.51-.4-.51-.48,0-1.22.55-2.24,1.63-.81.88-1.87,2.1-3.15,3.66s-2.88,3.42-4.78,5.59l-1.63,1.94a11.13,11.13,0,0,1-3.3,2.79,6.84,6.84,0,0,1-3.1.87,3.76,3.76,0,0,1-2-.51,2.89,2.89,0,0,1-1-2.54q0-3,2.75-9.77l1.32-3.25q1-2.34,1.78-4.27c.51-1.29,1-2.48,1.48-3.56q.7-1.32,1.62-1.32c.75,0,.88.44.41,1.32q-3.66,8.34-4.27,13.12a1.22,1.22,0,0,0-.1.56v.76c0,1.49.61,2.24,1.83,2.24a7.36,7.36,0,0,0,3.45-1.43,44,44,0,0,0,5.6-5.13q3.35-3.51,8-8.9c.54-.54,1-1.08,1.53-1.63l1.32-1.52a1.13,1.13,0,0,1,.71-.41c.2,0,.31.31.31.92a11.78,11.78,0,0,1-.31,2.33,11.43,11.43,0,0,0-.3,1.63,83.58,83.58,0,0,1-4.48,16,74.57,74.57,0,0,1-8.49,15.66,37.18,37.18,0,0,1-11.44,10.88A5,5,0,0,1,290.25,353.12Z" transform="translate(-177.77 -285.79)"/><path class="cls-1" d="M318.72,338.89c-.2.06-.34,0-.41-.11v-.3c.48-.88,1.12-2,1.93-3.46a15.62,15.62,0,0,0,1.53-3h-.2c-.34,0-.51-.2-.51-.61a5.74,5.74,0,0,1,.2-1,13.88,13.88,0,0,0,.51-3.15c0-.2.24-.41.71-.61l1.68-.41a7.19,7.19,0,0,1,1.58-.2c.27,0,.47.32.61,1l.3,1.47v.1a5,5,0,0,1-1,2.24,31.57,31.57,0,0,1-2.33,3.2c-.92,1.12-1.82,2.14-2.7,3.05S319.13,338.55,318.72,338.89Z" transform="translate(-177.77 -285.79)"/><path class="cls-1" d="M291.19,505.91c-.34,0-.51-.3-.51-.91a4.75,4.75,0,0,1,.05-.56,6.48,6.48,0,0,1,.15-.77l4.38-11,5.18-12.81a25.87,25.87,0,0,0-3.56.05,32,32,0,0,0-4,.46l-1,.15a3.35,3.35,0,0,1-.56,0,1.13,1.13,0,0,1-1.12-.71c.07-.41.44-.78,1.12-1.12a8.27,8.27,0,0,1,1.22-.35c.47-.11,1.05-.22,1.73-.36s1.41-.24,2-.31a9.19,9.19,0,0,0,1.27-.2l1-.2c.34-.07.75-.14,1.22-.21l1.32-.2q.72-.1,1.53-.3.81-1.12,2.44-4t4.17-7.53c1.35-2.5,2.46-4.49,3.3-5.94s1.44-2.43,1.78-2.9a2.63,2.63,0,0,1,2.14-1.22c.41,0,.61.17.61.51a12.45,12.45,0,0,1-.51,1.32c-.41.68-1.08,1.93-2,3.76s-2,3.83-3.05,6-2.07,4.2-2.95,6.1-1.5,3.29-1.83,4.17a5.73,5.73,0,0,1,1.17-.1h1.67c.75,0,1.44,0,2.09.05s1.2.09,1.68.15c.95.21,1.42.48,1.42.82,0,.13-.3.37-.91.71a10.1,10.1,0,0,1-1.94.4c-.95.14-2.2.28-3.76.41-.41,0-.85,0-1.32.05l-1.53.15A174.08,174.08,0,0,0,297,496.15c-1.28,2.58-2.27,4.58-3,6s-1.08,2.27-1.21,2.54C292.2,505.51,291.66,505.91,291.19,505.91Z" transform="translate(-177.77 -285.79)"/><path class="cls-1" d="M310,502.46c-1.42,0-2-.72-1.83-2.14a36.58,36.58,0,0,1,2.14-7.73q.81-2,2.08-4.68c.85-1.76,1.85-3.72,3-5.9.61-1.15,1.13-2.16,1.58-3.05l1.06-2.13c.48-.95,1-2,1.48-3.05s1-2.27,1.57-3.56q3.87-8.45,6.66-13.27a19.31,19.31,0,0,1,6.06-6.87c.13-.13.5-.15,1.11-.05a10.32,10.32,0,0,1,1.78.46,1.82,1.82,0,0,1,1.07.71,5.26,5.26,0,0,1,.31,2q0,4.06-3.77,9.76a69.35,69.35,0,0,1-5.13,6.66q-3.1,3.61-7.27,7.78l-1.83,2.95a90.22,90.22,0,0,0-4.73,8.34,10.49,10.49,0,0,0-1.27,6.1c.13.4.3.61.51.61a2.23,2.23,0,0,0,1-.51,15.09,15.09,0,0,0,1.48-1.22,10.33,10.33,0,0,0,1.47-1.73,5.52,5.52,0,0,0,.87-1.12,9.15,9.15,0,0,1,.76-1.12,11.15,11.15,0,0,1,1.22-1.83,24.68,24.68,0,0,1,3.25-4.57c1.49-1.49,2.82-2.24,4-2.24a4.47,4.47,0,0,1,3.61,2.19,37.1,37.1,0,0,1,3.41,6.25,28.67,28.67,0,0,0,2.44,4.68c.74,1,1.45,1.52,2.13,1.52a3.69,3.69,0,0,0,2.34-1.22,4.22,4.22,0,0,1,2.14-1.22c.4.48.37,1.07-.11,1.78a7.93,7.93,0,0,1-2.08,2,17.29,17.29,0,0,1-2.69,1.57,3.2,3.2,0,0,1-2,.41,8.13,8.13,0,0,1-4.42-2.9,28.56,28.56,0,0,1-3.1-5.44c-.34-.74-.65-1.41-.92-2a7,7,0,0,0-.81-1.38,2.26,2.26,0,0,0-1.93-1,3.76,3.76,0,0,0-2.14.91,23.67,23.67,0,0,0-2.44,2.39,20.86,20.86,0,0,0-2.34,3.31c-.47.68-.83,1.2-1.07,1.57a4.27,4.27,0,0,1-.56.77c-.34.47-.86,1.17-1.57,2.08s-1.55,2.05-2.49,3.41a4.75,4.75,0,0,1-1.58,1.12,4.82,4.82,0,0,1-2.08.51Zm12.41-29.19c.2.14.71-.19,1.52-1a36.54,36.54,0,0,0,2.8-3.05q1.57-1.87,3.15-4a34.35,34.35,0,0,0,2.49-3.71c2.1-3.6,3.16-6,3.16-7.12a1.11,1.11,0,0,0-.51-1c-.68-.54-1.6-.25-2.75.86a24.59,24.59,0,0,0-3.46,4.38,44.47,44.47,0,0,0-2.95,5.34q-.71,1.62-1.47,3.66c-.51,1.35-.93,2.56-1.27,3.61A20.64,20.64,0,0,1,322.41,473.27Z" transform="translate(-177.77 -285.79)"/><path class="cls-1" d="M352.61,497.57a6.48,6.48,0,0,1-3.76-1.11,7.21,7.21,0,0,1-2.65-6.11,16.48,16.48,0,0,1,2.85-8.64,28.7,28.7,0,0,1,8.64-8.44,4.75,4.75,0,0,1,2.75-.71,6.86,6.86,0,0,1,4,1.22,2.86,2.86,0,0,1,1.38,3.15,11.54,11.54,0,0,1-3.1,5.59,26.91,26.91,0,0,1-5.6,4.33q-3.19,1.88-6.56,3.61a4.18,4.18,0,0,0-.15.61,4.07,4.07,0,0,0-.05.61,3.57,3.57,0,0,0,1,2.49,3.44,3.44,0,0,0,2.69,1.06,5.54,5.54,0,0,0,2.24-.4c1.08-.41,2-.78,2.69-1.12a16.7,16.7,0,0,0,2.49-1.53q1.43-1,3.87-3.05a4.69,4.69,0,0,1,1.32-.81c.41,0,.54.31.41.92a14.81,14.81,0,0,1-3.51,3.55,29.62,29.62,0,0,1-5.49,3.36A12.84,12.84,0,0,1,352.61,497.57Zm-1.43-9.86c.55,0,1.66-.54,3.36-1.63a41.18,41.18,0,0,0,4.78-3.56c2.58-2.37,3.86-4.2,3.86-5.49a1.48,1.48,0,0,0-.3-.91,1,1,0,0,0-.92-.51c-1.29,0-3.45,1.52-6.5,4.57A15.49,15.49,0,0,0,351.18,487.71Z" transform="translate(-177.77 -285.79)"/><path class="cls-1" d="M367,498.59c-.89,0-1.33-.78-1.33-2.34a8.31,8.31,0,0,1,.92-3.76q2.34-4.47,4.27-8.85c.88-1.76,1.71-3.46,2.49-5.08s1.51-3.12,2.19-4.48a1.78,1.78,0,0,1,1.22-.61c.88,0,1.15.41.81,1.22-.13.48-.32,1-.56,1.68s-.52,1.41-.86,2.29a38.55,38.55,0,0,0-1.93,6,73.66,73.66,0,0,1,5.84-4.73,48.9,48.9,0,0,1,5.65-3.61,9.86,9.86,0,0,1,4.47-1.42c1.09,0,1.63.44,1.63,1.32a3.91,3.91,0,0,1-1,2.39,2.74,2.74,0,0,1-2,1.27,1.06,1.06,0,0,1-.81-.31,5.21,5.21,0,0,0-1.23-.1q-3.26,0-6.81,3.16a37.5,37.5,0,0,0-6.81,7.57,47.64,47.64,0,0,0-4.48,7.68A2.23,2.23,0,0,1,367,498.59Z" transform="translate(-177.77 -285.79)"/><path class="cls-1" d="M392.78,497.57a6.54,6.54,0,0,1-3.77-1.11,7.23,7.23,0,0,1-2.64-6.11,16.48,16.48,0,0,1,2.85-8.64,28.47,28.47,0,0,1,8.64-8.44,4.75,4.75,0,0,1,2.75-.71,6.86,6.86,0,0,1,4,1.22,2.84,2.84,0,0,1,1.37,3.15,11.38,11.38,0,0,1-3.1,5.59,26.59,26.59,0,0,1-5.59,4.33c-2.14,1.25-4.32,2.45-6.56,3.61a3.2,3.2,0,0,0-.15.61,3.08,3.08,0,0,0,0,.61,3.6,3.6,0,0,0,1,2.49,3.46,3.46,0,0,0,2.7,1.06,5.54,5.54,0,0,0,2.24-.4c1.08-.41,2-.78,2.69-1.12a17.22,17.22,0,0,0,2.49-1.53q1.42-1,3.87-3.05a4.69,4.69,0,0,1,1.32-.81c.41,0,.54.31.41.92a14.81,14.81,0,0,1-3.51,3.55,30.3,30.3,0,0,1-5.49,3.36A12.91,12.91,0,0,1,392.78,497.57Zm-1.43-9.86a9,9,0,0,0,3.36-1.63,42.05,42.05,0,0,0,4.78-3.56q3.86-3.56,3.86-5.49a1.48,1.48,0,0,0-.3-.91,1,1,0,0,0-.92-.51q-1.94,0-6.51,4.57A15.55,15.55,0,0,0,391.35,487.71Z" transform="translate(-177.77 -285.79)"/><path class="cls-1" d="M410.57,501.13c-.14.14-.2.24-.2.31a10,10,0,0,1,1.32-3.92,4.79,4.79,0,0,1,2.34-2.39,2.69,2.69,0,0,1,.91-.1,1.52,1.52,0,0,1,1.53.92c.07.06.1.23.1.51,0,.81-.54,1.55-1.63,2.23-.88.48-1.56.87-2,1.17s-.78.49-.92.56h.11A7.29,7.29,0,0,1,410.57,501.13Zm8.75-13.73c-.14.14-.21,0-.21-.4a7.85,7.85,0,0,1,.31-2.85c.27-.54.76-1.51,1.47-2.9s1.68-3.23,2.9-5.54,2-4.15,2.7-5.54a12.66,12.66,0,0,0,1.06-2.8,16.19,16.19,0,0,0,.92-4.68v-2.23a3,3,0,0,1,.61-2,11.22,11.22,0,0,1,3.05-1.93.8.8,0,0,1,.51-.1,2.35,2.35,0,0,1,1.47.51,1.81,1.81,0,0,1,.66,1.52,9.56,9.56,0,0,1-1.32,4c-.47.88-1.07,2-1.78,3.35s-1.57,3-2.59,4.89q-1.43,2.53-2.54,4.62c-.75,1.39-1.39,2.63-1.94,3.71-.74,1.5-1.34,2.73-1.78,3.72a8.88,8.88,0,0,0-.76,2.28,2.8,2.8,0,0,1-.56.72,15.15,15.15,0,0,1-1.22,1.17A1.92,1.92,0,0,1,419.32,487.4Z" transform="translate(-177.77 -285.79)"/><path class="cls-2" d="M182.79,471.48q-1.62,0-1.62-1.29c0-1.19.86-2,2.59-2.43A61.58,61.58,0,0,0,200,460.39a118.25,118.25,0,0,0,15.38-11.57A142.74,142.74,0,0,0,228.12,436q1.29-1.62,3.56-4.29t5.34-6.56l-7.69,3.08q-3.65,1.46-6.72,2.91a1.28,1.28,0,0,1-.81.16c-1,0-1.45-.59-1.45-1.78a8.31,8.31,0,0,1,1.05-3.8,6.54,6.54,0,0,1,2.51-2.83q4.69-1.95,9.63-3.64t10.12-3a153.88,153.88,0,0,0,12.46-20.15,146.57,146.57,0,0,0,9.23-23.07,23.64,23.64,0,0,0,1.13-6.15q0-6.32-7.44-7.29a24.47,24.47,0,0,0-7.77.81,87.62,87.62,0,0,0-10.69,3.32q-5.82,2.19-11.41,4.78a75.85,75.85,0,0,0-9.79,5.34,110.83,110.83,0,0,0-18,14.16,85.69,85.69,0,0,0-13.2,15.62q-4.2,7-4.21,11,0,6.31,8.58,6.31a57.27,57.27,0,0,0,18.05-2.91,77.52,77.52,0,0,0,15.14-6.64,8.19,8.19,0,0,1,3.88-1.29q1.14,0,1.14.48c-.11.33-.6.76-1.46,1.3A133.57,133.57,0,0,1,211,421.22a49,49,0,0,1-18.78,3.8q-7.29,0-10.85-2.67a8.7,8.7,0,0,1-3.56-7.36,22.89,22.89,0,0,1,3.4-11.17,70.92,70.92,0,0,1,8.66-12.31,115.32,115.32,0,0,1,12.39-12.3A99.2,99.2,0,0,1,217,368.69a141.43,141.43,0,0,1,21.93-11,58.88,58.88,0,0,1,21.61-4.21q5.83,0,8.74,3t2.92,8.33a28.78,28.78,0,0,1-1.46,8.42q-2.91,9.72-5.58,16.75a110.05,110.05,0,0,1-12.87,24.69,88.09,88.09,0,0,1,9-1.94q4.13-.64,8.82-1.22t11.17-1.21c.87-.11,2.05-.21,3.56-.32s3.3-.27,5.35-.49q9.06-16.19,16.59-27.36A150.44,150.44,0,0,1,319.9,364.8a4,4,0,0,1,2.92-1,8.9,8.9,0,0,1,4.53,1.22c1.4.8,2.1,1.75,2.1,2.83a1.85,1.85,0,0,1-.64,1.29,153.29,153.29,0,0,0-16.27,17,232.13,232.13,0,0,0-17.08,23.15h4.05a5.9,5.9,0,0,1,1.05.08,3.68,3.68,0,0,1,.73.24.64.64,0,0,1,.48.65c0,.76-.7,1.19-2.1,1.3s-3.35.27-5.83.48a135,135,0,0,0-8.26,15.14,157.5,157.5,0,0,0-6.15,15.29,26,26,0,0,0-1.29,6.8q0,5.83,5.34,6.8a1.69,1.69,0,0,1,1.62,1.95,4.73,4.73,0,0,1-1.3,3.23,3,3,0,0,1-2.91,1.14q-7.61-1.31-7.61-9.39a33,33,0,0,1,1.94-10.2,140.64,140.64,0,0,1,5.43-14.17q3.32-7.52,7.85-15.94a158,158,0,0,0-20.24,3.8q-9.7,2.52-22.17,6.72-1.62,2.1-3.65,4.29c-1.35,1.46-2.88,3.05-4.61,4.78l-5.67,6.15a135.24,135.24,0,0,1-13.35,12.79A131.75,131.75,0,0,1,202,463.31a74.86,74.86,0,0,1-18.05,8A2.71,2.71,0,0,1,182.79,471.48Z" transform="translate(-177.77 -285.79)"/><path class="cls-2" d="M314,432.33a8.79,8.79,0,0,1-5.08-1.51q-3.57-2.74-3.57-8.24t3.84-11.68a38.66,38.66,0,0,1,11.67-11.39,6.4,6.4,0,0,1,3.71-1,9.35,9.35,0,0,1,5.43,1.64,3.87,3.87,0,0,1,1.85,4.26,15.5,15.5,0,0,1-4.19,7.55,35.87,35.87,0,0,1-7.55,5.84q-4.32,2.55-8.86,4.87a5,5,0,0,0-.2.83,4.54,4.54,0,0,0-.07.82,4.85,4.85,0,0,0,1.3,3.37,4.66,4.66,0,0,0,3.64,1.44,7.34,7.34,0,0,0,3-.55c1.47-.55,2.68-1.05,3.64-1.51a23.41,23.41,0,0,0,3.37-2.06c1.28-.91,3-2.29,5.22-4.12a6.58,6.58,0,0,1,1.78-1.1c.55,0,.73.41.55,1.24a20.07,20.07,0,0,1-4.74,4.8,40.45,40.45,0,0,1-7.41,4.54A17.44,17.44,0,0,1,314,432.33ZM312.05,419q1.09,0,4.53-2.2A55.14,55.14,0,0,0,323,412q5.22-4.8,5.22-7.41a2.05,2.05,0,0,0-.41-1.24,1.36,1.36,0,0,0-1.24-.69q-2.61,0-8.79,6.18A20.9,20.9,0,0,0,312.05,419Z" transform="translate(-177.77 -285.79)"/><path class="cls-2" d="M333.74,439.88a3.6,3.6,0,0,1-2.54-1,2.7,2.7,0,0,1-.89-2.33,37.45,37.45,0,0,1,2.13-10.85,122.53,122.53,0,0,1,5.42-12.5c.28-.64.53-1.21.76-1.72s.43-.93.62-1.3q3-6.45,6.18-12.36t6.31-11.54l1.93-3.43q3.29-5.91,5.77-9.55a19.15,19.15,0,0,1,4.94-5.28c2.1-1.28,3.38-1.93,3.84-1.93.74,0,1.47.65,2.2,1.93.46.91-.46,3.16-2.75,6.73-1.19,1.83-2.67,4.12-4.46,6.86s-3.91,5.86-6.38,9.34c-.46.64-1.22,1.77-2.27,3.37s-2.45,3.68-4.19,6.24-3.25,4.88-4.53,6.94-2.34,3.87-3.16,5.42c-1.65,3-3.21,6.25-4.67,9.69s-2.2,6.11-2.2,8c0,1.74.69,2.61,2.06,2.61q3.3,0,10.58-5.63c.55.09.82.37.82.82s-.46,1-1.37,1.93a34.13,34.13,0,0,1-3.09,2.67l-4.33,3.37-2.19,1.65A7.14,7.14,0,0,1,333.74,439.88Z" transform="translate(-177.77 -285.79)"/><path class="cls-2" d="M354.89,439.88a3.58,3.58,0,0,1-2.54-1,2.67,2.67,0,0,1-.89-2.33,37.45,37.45,0,0,1,2.13-10.85,120.32,120.32,0,0,1,5.42-12.5c.28-.64.53-1.21.76-1.72s.43-.93.61-1.3q3-6.45,6.19-12.36t6.31-11.54l1.92-3.43q3.3-5.91,5.77-9.55a19.32,19.32,0,0,1,4.95-5.28c2.1-1.28,3.38-1.93,3.84-1.93.73,0,1.46.65,2.2,1.93.46.91-.46,3.16-2.75,6.73l-4.46,6.86c-1.79,2.75-3.91,5.86-6.39,9.34-.46.64-1.21,1.77-2.26,3.37s-2.45,3.68-4.19,6.24-3.25,4.88-4.53,6.94-2.34,3.87-3.16,5.42c-1.65,3-3.21,6.25-4.67,9.69s-2.2,6.11-2.2,8c0,1.74.69,2.61,2.06,2.61q3.3,0,10.58-5.63c.55.09.82.37.82.82s-.46,1-1.37,1.93a35.57,35.57,0,0,1-3.09,2.67l-4.33,3.37-2.2,1.65A7.1,7.1,0,0,1,354.89,439.88Z" transform="translate(-177.77 -285.79)"/><path class="cls-2" d="M380.16,433.15q-5.36,0-5.36-4.8c0-.19,0-.51.07-1s.12-1,.21-1.64a28.35,28.35,0,0,1,5.56-10.92,49.2,49.2,0,0,1,9.68-9.27c1.38-1.1,3.57-1.65,6.59-1.65a12.84,12.84,0,0,1,4.61.76,5.12,5.12,0,0,1,2.81,2.26,6,6,0,0,1,.82,3.16,8.19,8.19,0,0,1-.06.82c0,.37-.12.78-.21,1.24a2.13,2.13,0,0,1,.89-.14,11.69,11.69,0,0,0,1.58-.13l1.86-.28a12.28,12.28,0,0,1,1.85-.14h.55c1,0,1.12.39.34,1.17a5.26,5.26,0,0,1-3.09,1.44l-4.67.55a23.87,23.87,0,0,1-4.74,7.69A40.11,40.11,0,0,1,392,429a22.45,22.45,0,0,1-7.62,3.64A16.37,16.37,0,0,1,380.16,433.15Zm4.12-4.8a9.6,9.6,0,0,0,3.91-1.31,31.9,31.9,0,0,0,5.29-3.5,39.34,39.34,0,0,0,4.94-4.67,11.25,11.25,0,0,0,1.38-1.72c.46-.68,1-1.39,1.51-2.13l-3.3.42a117.09,117.09,0,0,1-13.73,1.23,28,28,0,0,0-3.71,8.24,2.77,2.77,0,0,0,1,2.61A4.47,4.47,0,0,0,384.28,428.35Zm13.46-15.66c.55,0,1.21,0,2-.07s1.67-.11,2.68-.2a3.56,3.56,0,0,0,.13-1.24,3.46,3.46,0,0,0-2.05-3.43,5.1,5.1,0,0,0-2.75-.69,8,8,0,0,0-4.19,1.3,32.46,32.46,0,0,0-4.46,3.37A29.15,29.15,0,0,0,397.74,412.69Z" transform="translate(-177.77 -285.79)"/></svg>