<?xml version="1.0" encoding="utf-8"?>
<!-- Generator: Adobe Illustrator 26.0.2, SVG Export Plug-In . SVG Version: 6.00 Build 0)  -->
<svg version="1.1" id="Layer_1" xmlns="http://www.w3.org/2000/svg" xmlns:xlink="http://www.w3.org/1999/xlink" x="0px" y="0px"
	 viewBox="0 0 1913.6 876.6" style="enable-background:new 0 0 1913.6 876.6;" xml:space="preserve">
<style type="text/css">
	.st0{fill:url(#SVGID_1_);}
	.st1{fill:#432A5E;}
	.st2{fill:#F9B09B;}
	.st3{fill:#FFEBC2;}
	.st4{fill:#8F5681;}
	.st5{fill:#CFE3F2;}
	.st6{fill:#8EA9C1;}
</style>
<linearGradient id="SVGID_1_" gradientUnits="userSpaceOnUse" x1="956.815" y1="353.9696" x2="956.815" y2="876" gradientTransform="matrix(1 0 0 -1 0 876)">
	<stop  offset="0" style="stop-color:#F58D8E"/>
	<stop  offset="0.22" style="stop-color:#E47D8A"/>
	<stop  offset="0.6" style="stop-color:#BD5781"/>
	<stop  offset="0.72" style="stop-color:#9A466F"/>
	<stop  offset="1" style="stop-color:#401C40"/>
</linearGradient>
<rect class="st0" width="1913.6" height="522"/>
<path class="st1" d="M887,405.5c-79.2-10.1-146.8-20.4-430.3-55.9C238.9,322.3,72.6,288.6,0,271.9v51.4
	c281.6,19.8,848.2,85.8,871,89.5C895.3,416.7,966.1,415.6,887,405.5z"/>
<path class="st1" d="M1794.7,153.2c-18.3,15.2-643.9,126.4-646.8,129.2s345.1-17,462.5-34.8c59.3-8.9,188.4-22.1,303.2-34.4V102.9
	c-177.5,27-396.5,57.5-413,63.3C1473.9,175.7,1813.1,138,1794.7,153.2z"/>
<path class="st1" d="M1514.5,320.6c12.4-3,25-5.2,37.5-7.6c24.5-4.6,49.2-8.4,73.9-11.7c27.1-3.7,54.3-7.3,81.4-10.8
	c25.5-3.2,51.1-6.3,76.7-9.4c2.1-0.3,4.3-0.3,6.4-0.4c-2.4,2.5-4.8,5.1-7.1,7.6c-8.5,9.1-10.4,18.7-4.5,29.6c3.2,6,0.6,6-4,6.4
	c-16.3,1.4-31.9,5.3-46.2,13.4c-8,4.5-15.6,10-16.2,20.6c-2.6,0.9-5.8-0.7-7.9,1.9c-2.9-0.4-6-0.3-8.7-1.3c-16.4-6.3-34-8-51.4-6.4
	c-8.6,0.8-17,2.3-25.4,4.3c-6.9,1.6-13.6,2.9-20.6,0.6c-4.9-1.6-9.6-4.2-14.6-5.6c-14.8-4.3-30.5,1.5-45.9,2.9
	c-17.6,1.5-35.1-2.8-49.9-12.3c-2.3-1.5-4.6-4-7.1-5.1s-3.8-0.6-6.6,0.2c0.9-4,4.3-5.2,7.5-6.5
	C1492.4,326.6,1503.3,323.2,1514.5,320.6z"/>
<path class="st2" d="M941.1,366.7c-7.7,1.5-15.3,2.4-22.8,6.2c-14.3,7.3-29.7,7.2-43.9-1.3c-5.5-3.3-10.2-3.4-16-1.6
	c-10.1,3.2-20.4,4.9-30.9,1.3c-6.5-2.3-12.5-5.9-15.4-12C808,350.7,801,349,793,349c-6.8,0.1-13.4-2.8-17.8-8
	c-6.4-7.2-14.5-10.6-24-11.7c-4.2-0.5-9-1.4-11.8-4.8c-8-10-18.4-16-30.5-19.3c-1.7-0.5-3.3-1.7-4.9-2.7c-1.4-0.9-2.9-1.7-2.4-3.7
	c0.4-2,2.1-3.3,4.1-3.2c14-0.4,28.2-1.4,40.4,7.7c6.8,5,14.2,6.8,22.7,6.9c14.8,0.1,29.6-1.5,44.4,1.2c5.8,1.1,10.3,4.4,15.3,6.9
	c3,1.4,4.8,1.4,7.2-0.7c7.8-6.7,16.8-7.7,27-6.7c18.1,1.7,36.3,3.4,52.5-9.4c9.3-7.4,21.4-10.2,33.3-10.6c12.6-0.5,25.4-1.3,38,0.7
	c3.7,0.6,5.6-1.8,7.8-3.3c9.3-6.7,21.1-9,32.2-6.2c2.3,0.5,5.1,1,7.2,0.1c14.2-6,26.9-2.1,40,4c10.1,4.7,21.9,4.5,32.2,9.3
	c9.8,4.6,20.9,4.2,31.4,6.3c3.3,0.7,6.5,1.1,6.6,5.5c0.1,4.2-1.8,7-5.6,8.9c-8.6,4.3-17.8,5.6-27.1,6.8c-3.8,0.5-4.9,1.5-2.9,4.9
	c-0.4,3.1-3.2,4.5-4.9,6.5c-5.2,0.3-8.8,1.7-6.7,8.3c0.8,2.4,0.2,5.2,0.2,7.9c-8.4,3.1-16.8,6-25,9.5c-3.4,1.5-7.7,3-7.4,8.2
	l-3.2,0.1l-13,4.8h-4.9c-3.8-3.1-8.3-3.4-13-3.2c-1.8,0-3.7-0.3-4.9,1.6c-2.7,1-5.6,1.8-8.2,3.1c-8.5,4.2-16.7,4.5-25.3,0
	c-4.4-2.3-8.2-6-13.5-6.4l0,0c-1.6-5-3.2-2.5-4.9,0l0,0C962.7,368.7,952,365.4,941.1,366.7z M944.9,345.8c6,0,9.5,3.5,12.7,7.3
	c4.5,5.4,10.4,6.8,17.2,7.1c12.4,0.6,25-3.1,37.4,1.3c3,1.1,6.8-0.1,10.3-0.6c9.6-1.4,17.4-7.6,27.5-8.2c4.7-0.3,11.3-4.2,12.2-10.4
	c0.6-4.2,2.8-8,6.2-10.6c2.1-1.8,3.3-3.9,1.8-6.4c-2.2-3.8-6-6.3-10.3-7c-2.9-0.4-3.2,2.8-3.9,5.2c-1.3,4.5-4.3,7.5-9.3,7.3
	c-4-0.2-6.2,2-8.5,5c-5.2,6.8-12.2,10.3-20.9,11.4c-15.8,2-31.1-4.8-46.8-1.9c-0.8,0.2-1.6,0-2.3-0.5
	C960.3,338,952.9,345.1,944.9,345.8z"/>
<path class="st2" d="M241,131.6c0.1-1.3-0.6-2.5-1.7-3.2c-3.3-9.6-11.5-5.5-17.9-6.5c-8.8,0.8-17-1.3-24.9-5.2
	c-5.9-2.9-9.4-7.2-9.1-13.8c0.3-7.9-3-12.8-10.8-14.7c-9.2-2.2-15-7.6-17-17.2c-1.2-6-7.1-8-11.9-10c-6.3-2.6-10.5-6.6-12.2-13
	c-1.7-6.8-6.2-12.7-12.4-16c-4-2.3-9.8-5.7-7.9-10.8c2.2-6,8.2-2.3,12.8-1.6c12.3,1.7,22.4,6.3,28.9,17.9c2.9,5.2,9.5,6.6,15.3,8.2
	c13.9,3.8,28.8,3.4,41.7,11.2c3.5,2.1,7.1,4,9.1,7.6c2.2,4,5,4.4,8.6,2.3c10.1-6,20.2-3.7,30.1,0.1c17.1,6.4,33.6,8.8,51.7,2.2
	c22.1-8,44.7-4.1,66.4,3c6.1,2,12.5,2.9,18.9,2.9c9.9,0.1,19.8-0.3,29.8,1.4c12.9,2.2,17.8,7.8,14.3,19.8c-1.6,5.7,0.8,8.3,4.5,10.6
	c6.9,4.3,12.6,10.1,16.8,17.1c1.4,2.2,2.7,3.1,5,3c3-0.1,5.9,0.4,8.7,1.5c3,1,5.9,2.6,5.6,5.9c-0.2,3.7-3.2,5.2-6.8,5.6
	c-3.5,0.3-6.9,1.1-10.3,1.6c-1.7,0.2-3.2,0.5-2.8,2.9c1.4,9.6-6.5,10.5-12.2,11.4c-10.8,1.7-21.6,2-31.8,7.1
	c-7.1,3.5-15.4,0.9-23.2,1.3c-4.4-4.6-10.1-8.8-16.1-5.8c-6.6,3.3-13.1,2.5-19.7,2.5c-4.9,0-10.2-0.9-12.4-5.9
	c-3.6-8.2-9.9-11.2-18.3-12.3c-4.4-0.6-8.8-2-13.2-3.3c-9.2-2.8-19-4.7-28.5-3.8c-9.8,0.9-19.6,3.2-29.6,2.8l-4.8-1.6L241,131.6z
	 M339.1,90.7c9.1,1.5,16,10.2,26.1,7c2.2-0.6,4.4,0,6.1,1.4c6,4.9,13.2,4.6,20.4,5.1c11.5,0.8,23.4,2.2,27.5,16.2
	c1.6,5.2,2.2,10.8,8,14c2.5,1.4,2.1,4.8,0.4,7.3c-2.1,2.9-1.7,4.1,2,4.6c16.1,2,14.3-10.1,16.3-19.7c1.1-5.4,1.5-10.2-3.9-13.4
	c-1.4-0.8-2.8-1.6-4.1-2.5c-2.4-1.7-5.6-3.1-6.9-5.5c-5.2-9.6-13.8-10.9-23.3-10.8c-5.6,0.1-10.8,0.2-15.6-4.6
	c-3.4-3.3-8.8-4.6-14.1-5.2C364.5,82.8,352.8,92.3,339.1,90.7z"/>
<path class="st2" d="M1388.4,237.3c-0.3-3.7-2.4-3.4-5.1-2.6c-9.5,3.1-19.8,2.3-28.7-2.2c-7.2-3.4-15.8-5-24.3-2.3
	c-4.2,1.3-8.8,0.7-12.5-1.6c-10-6-21.7-8.7-33.3-7.7c-2.4,0.2-4.8-0.1-7.1-0.7c-1.9-0.4-3.3-2.1-3.4-4.1c0-1.9,1.7-2.4,3.2-3.2
	c8.2-4,17.2-6.8,25.6-4.5c15.7,4.3,30.4,3.1,45.6-2.1c13.4-4.6,27.5-10,41.9-2.5c1.2,0.6,2.4,0.2,2.6-0.9
	c2.8-14.8,15.6-13.9,25.9-15.7c13-2.3,23.1-6.6,30-19.4c6.4-12,19.5-18.4,32.1-20.6c15.8-2.8,29.3-9.4,42.7-17.2
	c6.8-3.9,14.8-5.1,22.4-3.3c2.9,0.4,5.6,1.9,7.5,4.1c6,7.2,13.7,9.9,23,9.2c7.5-0.7,15,0.7,21.8,4c4.6,2.3,8.8-1.2,12.9-3
	s7-0.7,10.4,1.7c4.2,3,0,5.6,0.2,8.4c-2.1,1.3-7.2,1.2-3.1,5.6c7.1,7.5,7.2,7.5-0.1,15.5c-2.9,2.5-7.8,3.1-8.2,8.1
	c-0.9,11.4-9.8,14-18.2,14.2c-8.9,0.2-13.3,3.9-16,11.4c-4.1,1.2-8.2,3.3-12.3,3.4c-19.7,0.6-38.6,6.5-58.1,8.4
	c-3,0.3-5.7,1.1-7.7,3.8c-10.3,14-24.6,16.2-40.4,13c-5.1-1.1-9.4-0.5-13.6,2.7c-14.2,10.8-29.1,11.3-44.3,2.5
	C1396.2,237.5,1392.6,236.5,1388.4,237.3z M1489.8,169.3c6.6,0.8,13.2,5.8,19-2.2c1.7-2.4,7.1-3.7,11.3-2c2.3,0.9,4,0.1,5.9-1.4
	c9.7-7.9,20.5-8.6,32.5-6.6c7.8,1.3,13.8,7.4,21.9,7.1c4.4-0.3,8.6,1.5,11.5,4.8c3,3.3,6.2,4.9,9.2,0.4c2.9-4.3,2.1-8.8-2.6-10.8
	c-4.2-1.8-7.1-4.5-10.2-7.4c-2.8-2.6-6.5-4.1-10.6-5.1c-7.2-1.8-14.3,1.6-21.3-1.4c-7.3-3.2-15.8-2.5-22.5,2
	c-6.7,4.5-13.4,4.1-20.6,4.7s-15.2,2.2-17.4,10.4C1494.8,165.6,1492.8,167.3,1489.8,169.3z"/>
<path class="st2" d="M831,400.7c3.4-2.5,6.4-5.8,11.4-5c1.1,0.2,3.2-0.7,3.4-1.5c2.6-7.8,9-6.2,14.8-6.4c12.2-0.6,23.9,1.4,35.9,4
	c10.9,2.4,22.5,0.7,33.4,4.2c15,4.8,30.4,3.1,45.7,3.1c6.8,0,12.2,1.9,13.7,8.5c1.4,6.3-4,9.6-8.7,12.2
	c-15.8,8.7-32.8,13.1-50.8,15.4c-12.5,1.6-24.5,1.7-36.6-1.7c-5.8-1.6-11.4-0.6-17.3,0.6c-20,4.1-40.2,6.4-60.5,1.1
	c-9.3-2.4-16.2-9.6-25.6-11.6c-1.1-0.2-2.2-0.8-1.9-2.1c0.4-1.9,2-2.3,3.6-2.7c6.7-1.5,13.8-1.6,19.2-6.9c1.2-1.2,2.3-2.3,2.5-4
	l17.9-0.1c0.8,0.9,1.8,1.2,2.3,0c0.6-1.6-0.9-1.9-2.1-2.2L831,400.7z"/>
<path class="st2" d="M396.5,181.9c4.5,1.8,9.2,3,14,3.4c10.2,1.2,18.3,7.1,25.3,14.2c2.9,3,9.1,5.6,8,9c-1.6,5.1-8,2.2-12.3,2.5
	c-4.7,0.3-8.9,2-13.2,3.4c-3.4,1.1-6.8,2.2-10.3,1.4c-5.8-1.3-10.9-1.7-14.1,4.8c-1,2-3.8,1.5-5.9,1.9c-4.2,0.8-9.2-0.1-11.8,5.1
	c-0.9,1.8-3.5,1.4-5.3,1.2c-13.3-1.6-26.8-2.6-38.2-10.7c-3.7-2.6-8.2-4-12.7-4c-12.1-0.6-21.6-8.8-33-12
	c-6.7-1.8-13.5-3.2-20.4-4.1c-2.4-0.3-4.8-0.6-7.1-1.2c-5.4-1.4-11.1-3.4-11.8-9.5c-0.8-6.6,5.6-7.5,10.3-9.4c1.4-0.7,2.8-1.6,4-2.6
	c2.1-0.1,4.3-0.4,6.4-0.8c23.5-6.2,48-8.2,70.5,0C358.2,181.6,377,181.7,396.5,181.9z"/>
<path class="st2" d="M1521.1,262.6c1.2-8.4,6.7-14,12.7-19.1c14.4-12.5,32.5-19.8,51.5-21c3.8-0.3,6.7-2,9.5-3.9
	c12.6-8.7,26.5-13.9,41.6-16.6c12.4-2.2,23.8,4.1,36.5,3.3c-10.1,4.2-11.8,16.6-21.8,20.4c-1.4,0.5-4,0.9-2.4,2.9
	c4.2,5.5,1.4,8.2-3.4,10.6c-3,1.5-0.4,3.7-0.4,5.6c-2.4,6.2-8.8,6.1-13.6,8.4c-3.4,1.6-7.3,1.3-11,1.9c-20,3-40,6-59.8,9.7
	c-7.3,1.4-14.1,4.9-21.3,7C1529.6,274.6,1522.3,270.8,1521.1,262.6z"/>
<path class="st2" d="M1116.2,366.6c11.5,2.4,20.7-4.6,30.6-8.2c13.9-5.1,28.7-7.2,43.5-6.3c6.7,0.4,12,6.1,19.2,5.1
	c1.1-0.2,1.9,0.9,2,2.1c0.2,1.7-0.9,3.3-2.6,3.6c-9.5,1.6-12.9,13.4-23.1,13.9c-0.4,0-1,0.7-1,1.1c-2.1,18.2-14.9,22.6-30.3,23.8
	c-1.1,0.1-2.1,0.5-3.2,0.5c-9.9,0.4-19.8,0.5-29.8,1.1c-17.4,1.2-34.8,0.9-51.8,6.3c-6.1,1.9-13.8,2.6-17.6-4
	c-4-7,1.7-11.8,6.4-16.5c2.9-2.8,7.2-3.9,9-8l29.2-11.5l6.4-1.6C1107.6,368.6,1112,368,1116.2,366.6z"/>
<path class="st2" d="M1622.3,87.9c-5.8,0.2-10.6-0.4-15.3,1.3c-1.8,0.7-4.5,1.2-5.7-1.4c-1-2.1,0.6-3.7,2.1-4.8
	c6-4.4,4.9-13.9,12.6-17.1c1-0.4,0.4-2.1-0.5-2.7c-4.3-2.8-2.6-5.6-1.3-9.6c1.2-3.7,0.5-8,4.6-10c6.9-3.4,13-9.4,21.2-9
	c6.2,0.3,12.3-1.5,17.2-5.3c5.2-3.8,11.6-4.4,17.6-5.5c9.5-1.7,18.6-5.3,26.7-10.7c5.3-3.6,10.8-3.4,16.2-2.8
	c7.7,0.8,10.3,9.6,6.4,18c-6.5,13.9-18,22.2-31.2,28.7c-3.6,1.8-7,3.6-11.3,3.8c-8.6,0.4-13.2,7.7-19.3,12.1
	C1649.8,81.7,1637.4,89.6,1622.3,87.9z"/>
<path class="st2" d="M120.7,123.6c-20.6-2.4-41.2-6-55.1-22.8C58.4,92,49.4,87.6,40.3,82.3c-10.4-6.1-18.2-13.8-16.8-27.6
	c0.6-6.3,3.4-6.7,7.9-4.8c15.9,6.4,32.3,8.5,49.5,7.7c10.8-0.5,16.8,8.6,22.4,16.5c8.5,11.9,14.2,25.9,26.9,34.7
	c2.5,1.8,8.2,3.3,5.6,8.2c-2.1,3.9-5.7,7.3-11.2,6.5C123.4,123.5,122.1,123.5,120.7,123.6z"/>
<path class="st2" d="M668.3,308.7c-11.7-1.9-21.8,2.4-32.5,0.9c-3.6-0.5-10,2.2-14.3,4.4c-12.8,6.5-22.4-1-32.5-5.7
	c-12.7-5.9-24.2-14.2-38.1-17.6c-2.8-0.7-5.6-1.7-8.4-2.6c-3.3-1.1-7.1-1.9-6.6-6.7s4.4-6.5,8.5-7.1c21.5-3.3,43-3.8,63,6.4
	c10,5.1,21,2.7,31.3,6C655.9,292.3,656.4,291.5,668.3,308.7z"/>
<path class="st1" d="M1310.4,389.6c-3.2,11.8-3.2,11.8-16.9,12.4c-20.5,0.9-40.4,4.5-59.7,11.9c-7.8,3-13.5,9.8-21.9,11.5
	c-12.6,1-25.2,1.9-37.7,3.1c-20.6,1.9-41.2,4.3-61.8,6.1c-25.4,2.2-50.8,3.9-76.5,4.3c13.9-3,27.9-6.2,41.9-8.9
	c37-7,73.9-14,110.9-20.6c38.9-6.9,77.9-13.2,116.8-19.7C1307.2,389.5,1308.8,389.5,1310.4,389.6z"/>
<path class="st2" d="M1675.2,135c-5.4,0.3-11-0.8-15.4-4c-5-3.7-7.3-10-3.5-15.4c2.9-4.2,7.7-6.6,12.5-8.5
	c8.3-3.3,16.3-6.4,20.6-15.6c2.4-5.2,8.7-6.4,14-6.7c6.1-0.3,12.3-1.1,18.5,1c3.4,1.1,6.8,0.4,10.2-1.1c5.2-2.2,10.6-3.9,16-5.6
	c3.6-1.2,8-2.5,10.5,1.1c2.9,4.1,0.5,8.3-2.3,11.8c-7.8,9.7-19,13.6-30.4,17.1c-4.2,1.3-9.4,1.8-10,7.8c-7.8,4-13.8,10.9-22.9,12.5
	c-5.9,1-9.9,4.8-16.2,5.4C1676.2,135,1675.7,135,1675.2,135z"/>
<path class="st2" d="M1390.1,277.6c5-9.6,13.2-13.1,23.7-13.4c8.1-0.2,16-2.5,22.9-6.7c10.6-6.4,21.1-5,31,1.6
	c3.6,2.4,7.1,2.2,10.7,1.5c5.1-1,10.2-0.9,15.2-0.7c3.9,0.1,6.7,1.7,6.9,6.2c-11.9,8.3-24.5,13.4-39.6,11.7
	c-12.2-1.4-22.2,7.4-33.9,8.8C1413.7,288.1,1400.5,288.6,1390.1,277.6z"/>
<path class="st2" d="M236.4,222.4c-4.3,0.2-8.6-0.4-12.8,1.1c-1.6,0.6-4.1,0.9-5.5,0c-8.5-5-17.8-6.5-27.3-7.9
	c-1-0.1-2.4-0.9-2.6-1.7c-2.1-8.4-10.3-11.4-15.7-16.3c-6.2-5.6-11.7-11.8-17.7-17.5c-1.4-1.3-3.4-2.3-2.5-4.5
	c1.1-2.8,3.2-0.5,4.8-0.4c1.9,0.1,4.2-0.1,5.5,1c12.8,10.9,30.6,10.6,44.1,19.6c10.8,7.1,23,8.9,34.8,12.5
	c5.9,1.8,11.6-1.6,17.5-0.5c3.2,0.6,7.3,0.4,7.6,4.4c0.4,5.3-4.4,3.1-7.2,3.7c-1.6,0.3-3.9,0.1-4.6,1
	C250.1,223.9,243,222.3,236.4,222.4z"/>
<path class="st2" d="M745.5,272.7c9.9-0.8,19.4,0.7,28,5.5c7.2,4,15.4,1.6,22.8,4.2c5.3,1.8,9.9,4,12.4,9.3c1.6,3.3,0.8,5.5-3.1,5.2
	c-9.6-0.9-18.5,1.8-27.5,4.4c-4.6,1.3-9.1-0.6-13.2-2.6c-12.3-5.9-23.6-13.9-37.3-16.5c-1.7-0.2-3-1.4-3.4-3c-0.6-2.5,1.4-3.2,3-4.2
	C733,271.3,739.4,273.1,745.5,272.7z"/>
<path class="st2" d="M1839.3,70.1c-2.7,0-4.3,0.1-6,0c-4.4-0.2-9.5-0.5-10.1-5.8c-0.6-5.5,3.9-9.3,8.7-10c7.6-1.2,13.4-4.8,19.1-9.5
	c4-3.2,9.4-4.3,14.4-2.8c8,2.3,16.5,2.1,24.4-0.4c2.7-0.9,5.5-1.1,7,1.9c1.4,2.8-0.8,4.5-2.5,6.2c-3.9,4-9.1,6.7-14.7,7.5
	c-7.4,1.3-14.6,3.1-20.9,7.7C1853,69,1846.1,70.9,1839.3,70.1z"/>
<path class="st2" d="M1010.3,450.9c-3.6,0.3-7.2,0.2-10.1-2.1c-7.4-5.9-15.6-7-24.3-4.1c-10.8,3.5-22,4.2-33.1,5.9
	c-3.8,0.6-7.7-0.3-9-3.7c-1.4-3.9,3.1-4.6,5.5-5.5c7.4-3,15.4-4.3,23.4-3.7c9.9,0.8,19.9,1.3,29.6-2c7.3-2.5,14.7-2.8,22.3-2.5
	c5.9,0.2,12.9,1.4,13.1,7.8c0.2,6.6-6.8,8.7-12.8,9.9C1013.6,451,1012,451,1010.3,450.9z"/>
<path class="st2" d="M48.7,102.5c7.8,1.7,16.6,2.4,22.7,9.6c6.3,7.5,14.6,11.7,23.6,15c2.3,0.8,4.5,1.9,6.6,3.1
	c4.2,2.5,5.8,6.6,4.5,11.1c-1.2,4.2-5.4,5.3-9.2,4.9c-4.2-0.6-8.4-1.6-12.5-2.9c-4.2-1.2-6.3-4.1-5.4-8.5c1.6-8-3.3-10.5-9.6-12.9
	c-8.5-3.2-17.3-6.1-23.8-13c-1.3-1.4-2.8-2.8-1.7-4.9C44.8,102.2,46.6,102.6,48.7,102.5z"/>
<path class="st2" d="M816.1,398.3c-6.9,2.9-13.8,2.9-21.1,1.2c-5.3-1.2-11.2-0.2-16.8-0.3c-4.3,0-8.8,0.3-10.7-4.9
	c-0.4-6.6,4.9-8.5,9.3-9.3c11.2-1.9,22.5-1.4,33,3.8C813.5,390.7,816.7,393.4,816.1,398.3z"/>
<path class="st2" d="M45.9,36.2c9.5-0.2,14.5,4.1,18.8,9.5c1.4,1.4,1.4,3.7,0,5.2c-1.4,1.7-2.9,3.5-5.4,2.2c-6-3-11.9-6-17.8-9.1
	c-1.5-0.8-2-2.7-1.2-4.2c0,0,0,0,0,0C41.3,37.5,43.5,36.1,45.9,36.2z"/>
<path class="st3" d="M221.5,122c6.4,1,14.6-3.1,17.9,6.5c-1.8,0.2-4.5-0.2-4.5,2.2c-0.1,7.4-5.2,6.2-9.5,5.8
	c-6.1-0.6-3.1-5.6-3.7-8.8C221.4,125.7,221.3,123.8,221.5,122z"/>
<path class="st3" d="M973.5,368.3c1.6-2.5,3.2-5,4.9,0H973.5z"/>
<path class="st1" d="M1292.7,584c10.8,7.5,17.7,5,27.8-1.4c0.9-0.5,2.2-1.6,2.1-2.3c-0.4-8.8,6.3-9.5,12.3-11
	c4.5-0.9,8.2-4.2,9.7-8.5l8,3.8c9.6,6.5,19.8,5.5,29.8,1.5c4.1-1.7,7.7-2.7,11.3-0.2c14.1,9.8,30,11.9,46.6,11.4
	c-1,6-3.6,8.8-10.5,7.3c-14-3.1-27,0.6-37.7,9.9c-6.5,5.6-12.5,7-21.1,6c-25.5-3-49.9,2.4-73.1,13.2c-10.7,5-21.6,9.9-31.7,16.2
	c-15.1,9.4-31.6,13.7-48.9,15.2c-19.6,1.7-39.2,2.4-58.8-1.3c-11.4-2.2-21.5-8.5-33.1-10.2c-39.8-5.8-79-4.5-117.4,8.1
	c-4.4,1.5-7.1,1.3-11.1-2.3c-12-10.8-27.6-12.9-42.8-14.7c-8.5-1-17.2-0.5-25.9-0.4c-3.4,0-5.1-0.8-4.7-4.5c0.8-6.9-3.7-10.4-9-13
	c-17.1-8.6-35.1-13.5-54.4-13.3c-5.4,0.1-10.8-0.1-16.2-0.1c2.9-6.6,9.6-5,14.5-5.8c33.4-5.8,67-8.2,101-6.3
	c9,0.5,18.2-0.8,27.2-1.7c2.8-0.3,4.8-0.6,6.9,2.2c8.8,11.8,22.3,14.9,35.4,8.2c2.1-1.1,4.1-0.9,6.2-1.4c5.2-0.2,9.2,4.1,14.4,3.8
	c20.1,5.5,43.9-2.6,56.7-18.5c7.5-9.2,18.1-12.8,29.7-14.4c6-0.8,10.5-0.7,15.2,4.6c4.1,4.6,10.7,7.2,17.1,8.4
	c3.8,0.7,5.2,1.4,3.4,5.6c-3.2,7.7-1,12,7.1,14.4c9.8,3,19.2,1.1,28.1-3.3c2.4-1.2,3.9-2.2,6.3,0c6.5,6,14.7,7.7,23.2,7.6
	c10.2,0,20.5,1.3,30.6-1.7c7.5-1.4,15.2-2.5,20.1-9.5C1288.4,583.7,1290.6,583.7,1292.7,584z"/>
<path class="st4" d="M746.4,729.5c0.3,16.3,0.3,16.2-15.5,14.9c-10.3-0.7-20.1-4.3-28.5-10.3c-5-3.6-8.2-4-9.7,2.8
	c-1.3,5.6-2.8,5.9-7.7,2.3c-10.2-7.7-22.4-12.1-35.2-12.7c-3.2-0.1-6.9-0.7-8.3,3.3c-1.2,3.4,0.4,6.1,2.7,8.8c2.5,3,8.5,4.8,7.2,8.4
	c-1.4,3.8-7.5,3-11.6,4.1c-14.1,3.8-27.4,0.7-40-5.3c-14-6.7-27.3-4.8-41.4-0.1c-19.2,6.4-38.9,8.3-58.7,2
	c-7.7-2.5-14.6-7.2-19.6-13.6c-12-14.9-27.6-22.6-46.2-25.5c-20.8-3.3-40.7-0.1-60,7.8c-2.1,0.9-5.3,4.1-7,0.8
	c-1.4-2.7,1.5-5.6,3.9-7.3c7.5-5.4,16-8.7,25-10.7c1.3-0.2,2.4-1,3.2-2c-31.1-0.1-60.8-4-84.9-25.9c10.4-4.1,20.8-0.1,30.9,0.9
	c15.4,1.5,30.5,5.8,46.2,5.8c2.5,0,4.3,0.1,5.5,3.2c3.2,8.2,10.8,12,19.8,10.3c5.5-1,11.3-0.4,16.4,1.9c16.2,6.8,32.6,7,47.7-3.2
	c10.1-6.8,20.7-10.8,32.9-10.7c3,0,5.8-0.2,6.5,4.1s4.8,6.2,8.2,8.4s5.8,4,2.5,8.8c-3,4.3,1,11.2,7.1,10.4c14.4-1.8,26.3,4.5,39,8.8
	c10.1,3.5,22.1,4.2,31,0.5c9.3-3.8,15.8-1.4,23.8,0.4c5.7,1.3,11.6-0.9,15.1-5.6c2.8-3.8,6.6-4.2,10.6-5.6
	c8.1-2.8,13.7-2.6,20.9,2.9c3.8,2.9,11.5,0.6,17.4,0.7c2.7,0,5.6-0.7,7.8,1.4c10.1,9.8,22.3,13.4,36,13.4
	C741.6,728.3,744,729.1,746.4,729.5z"/>
<path class="st1" d="M904.2,624.9c-11.4-2.2-20.8-3.9-30.2-5.8c-15.2-3.1-29.5-0.9-42.3,8.2c-2.4,1.7-4.2,1.3-6.7,0.4
	c-13.9-5.3-27.3-6.3-39.2,4.8c-2.4,2.2-4,1.8-5.9-0.7c-13.2-16.8-32.3-18.3-51.2-18.1c-12,0.1-24.1,3-34.2,10.7
	c-3,2.3-6.8,4.4-7.8,8c-2.1,7-6.8,6.6-12.4,6.5c-11.2-0.1-22.5,0.2-28.4,12.3c-1.4,2.8-3.1,1.1-4.8,0.7c-14-3.9-28-5.8-42.1-0.6
	c-1.2,0.5-2.8,1-3.8-0.2c-1.2-1.5,0-3.2,0.8-4.4c4-6.1,10-9.9,16.6-12.3c13.8-4.9,28.1-7.3,42.8-5.5c6.8,0.8,12.7-0.1,18.8-4.6
	c16-11.6,34.8-15.3,54.2-16c5-0.2,9.2-1.1,13.5-4c18.1-12.3,61-10.4,76.5,7.1c2.7,3.1,5.5,3.3,9.4,2.5
	C851.5,608.8,885.6,613.4,904.2,624.9z"/>
<path class="st1" d="M321.6,605.6c8.5-1.3,17-2.4,25.5-3.9c11.6-2.1,21.9-6.4,26.6-18.3c1.4-3.5,3.8-2.5,5.9-2.4
	c10.2,0.2,19.3-2.7,26.3-10.3c2.6-2.9,5-2,7.9-1.1c12.1,3.5,24.3,5,36.4-0.1c1.1-0.5,2.5-1.7,3.7-0.5c1.7,1.8,0.2,3.7-0.8,5.1
	c-6,8.5-15.5,11.3-24.7,14.3c-2.5,0.8-5.4,1.8-7.9,1.5c-20.9-2.4-39.1,5.6-57.9,13.1c-12.8,5.1-27,5.1-40.9,4.8
	C321.7,606.9,321.6,606.3,321.6,605.6z"/>
<path class="st3" d="M1595.8,520.8c0.4-6.8,3.9-6.1,8.2-3.3C1601.9,519.9,1600.4,524.1,1595.8,520.8z"/>
<path class="st3" d="M463,551.4c4.5-3.4,4.8-0.2,4.9,3.2C465.7,554.7,463.7,553.4,463,551.4z"/>
<path class="st5" d="M252.5,669.8l0.9-2.1C253.1,668.3,252.8,669,252.5,669.8z"/>
<path class="st6" d="M1790.5,649.5l0.6-0.2c0,0.2,0.1,0.4,0,0.5c-0.2,0.1-0.4,0.3-0.6,0.3C1790.4,650,1790.5,649.8,1790.5,649.5z"/>
<path class="st2" d="M1599.2,423.4c7.3,1.6,13.1-1.7,18.2-6.3c10.7-9.5,23.9-12.6,37.5-14.8c5.6-0.9,10.6-2.2,15.2-6.4
	c5.5-5.2,13.5-7.2,20.7-7.7c16.1-1.3,32.4-1.4,46.1,9.8c2,1.5,4.6,1.9,7,1c6.7-2.1,13.7-2.5,20.6-3.6c15-2.3,28.7,2.5,43,4.3
	l-0.2,2.1c-5.8-0.7-11.7-1.5-17.5-2.1c-12.5-1.4-24.6-1-35,7.5c-3.9,0.5-6.8,4.7-11.3,3.2c-5.7-2.5-12.2-2.5-17.9,0
	c-5.6-0.2-10.7,3-13,8.1c-4,0.9-6.4-2.2-9.3-3.9c-5.2-3.2-10.2-6.9-16.6-7.3l-8.1-1.6c-6.1,0-12.3-0.5-18.3,0.1
	c-6.7,0.7-13.8,0.6-19,6.3c-2.5,0.1-4.9,1.3-6.4,3.3c-4.4,2.2-7.6,6.2-9,10.9c-1.4,5-4,5.4-8.1,5.3c-5.6-0.1-11.4-0.4-15.4,4.7
	c-0.5,0-1,0-1.6,0.1c-2.9,1.2-5.5,2.6-4.8,6.5c-1.2,1.9-3.1,1.6-4.9,1.7c-9.9-2.7-19.7-1.5-29.5,0.2c-3.4,0.6-7.8,5.1-9.8,1.2
	c-1.8-3.5,3.4-6.7,6.1-9.6c1.5-1.6,3.6-2.4,5.2-3.6c6-4.4,13.6-4.5,20-7.8L1599.2,423.4z"/>
<path class="st1" d="M182.7,348.7l0.7,0.9l-0.9-0.7L182.7,348.7z"/>
<path class="st3" d="M1840.6,247.3l1.7-0.2C1841.8,247.8,1841.3,247.9,1840.6,247.3z"/>
<path class="st3" d="M1618.7,172.2c9.1,1,18-1.8,27.1-1.7c7.7,0.1,15.4,0,23,1.8v-0.1c0,1.2,0,2.3,0,3.5c-1.2,3-1.2,6.3,0.1,9.2
	c-19.3,6.9-39.2,11.5-59.3,15.3c-11.1,2.1-22.2,3.8-33.3,5.7c2.7-7.5,7.1-11.2,16-11.4c8.4-0.2,17.3-2.8,18.2-14.2
	C1610.9,175.3,1615.8,174.7,1618.7,172.2z"/>
<path class="st1" d="M1668.8,172.2c2.3,0,3.3,1.4,3.7,3.4h-3.6C1668.8,174.5,1668.8,173.3,1668.8,172.2z"/>
<path class="st3" d="M944.9,345.8c8.1-0.8,15.5-7.8,23.2-0.8c0.7,0.5,1.5,0.6,2.3,0.5c15.7-2.9,31,3.9,46.8,1.9
	c8.7-1.1,15.7-4.6,20.9-11.4c2.3-3,4.4-5.2,8.5-5c5.1,0.2,8-2.8,9.3-7.3c0.7-2.4,0.9-5.6,3.9-5.2c4.3,0.6,8.1,3.2,10.3,7
	c1.4,2.4,0.2,4.6-1.8,6.4c-3.4,2.6-5.6,6.4-6.2,10.6c-0.9,6.2-7.5,10.1-12.2,10.4c-10,0.6-17.9,6.9-27.5,8.2
	c-3.5,0.5-7.3,1.7-10.3,0.6c-12.4-4.4-24.9-0.7-37.4-1.3c-6.8-0.3-12.7-1.7-17.2-7.1C954.3,349.3,950.8,345.8,944.9,345.8z"/>
<path class="st3" d="M339.1,90.7c13.7,1.5,25.4-7.9,39.1-6.1c5.2,0.7,10.7,1.9,14.1,5.2c4.8,4.7,9.9,4.6,15.6,4.6
	c9.4-0.1,18.1,1.2,23.3,10.8c1.3,2.4,4.5,3.7,6.9,5.5c1.3,0.9,2.8,1.7,4.1,2.5c5.5,3.3,5,8,3.9,13.4c-2,9.6-0.2,21.8-16.3,19.7
	c-3.7-0.5-4.1-1.7-2-4.6c1.8-2.5,2.1-5.9-0.4-7.3c-5.8-3.1-6.4-8.7-8-14c-4.1-14-16-15.4-27.5-16.2c-7.3-0.5-14.4-0.2-20.4-5.1
	c-1.7-1.5-4-2-6.1-1.4C355.1,101,348.2,92.3,339.1,90.7z"/>
<path class="st3" d="M1489.8,169.3c3.1-2,5-3.6,6.1-7.6c2.2-8.2,10.1-9.9,17.4-10.4s13.9-0.2,20.6-4.7c6.7-4.5,15.2-5.2,22.5-2
	c7,2.9,14.2-0.5,21.3,1.4c4.1,1.1,7.8,2.5,10.6,5.1c3.2,2.9,6,5.6,10.2,7.4c4.7,2,5.5,6.5,2.6,10.8c-3,4.5-6.2,2.8-9.2-0.4
	c-2.9-3.3-7.1-5.1-11.5-4.8c-8.1,0.3-14-5.8-21.9-7.1c-12-1.9-22.8-1.2-32.5,6.6c-1.8,1.5-3.5,2.3-5.9,1.4c-4.2-1.7-9.5-0.4-11.3,2
	C1503,175,1496.4,170.1,1489.8,169.3z"/>
<path class="st3" d="M831.1,407.6c0.1-0.7,0.1-1.4,0.2-2.1c1.2,0.3,2.7,0.5,2.1,2.2C832.9,408.8,831.8,408.5,831.1,407.6z"/>
<path class="st3" d="M1805.2,141.9c-11.7-1.4-22.4-7.7-34.5-7c-2.4,0.1-4.8,0-7.1,1.3c-6.5,3.7-13.6,4.9-20.9,5.2
	c-5.6,0.3-10.3,3-11.9,8.2c-1.8,5.8-5.5,7.9-10.6,9.6c-6.9,2.3-12.9,5.8-12.5,14.6c5,5.2,0.3,11.3,0.3,19c4-3.9,4.9-8.8,8.5-8.5
	c8.4,0.7,8.4-5,9.1-10.5c7.4-2.4,11-9.2,16.5-13.8c17.9-15.1,40-7.4,60.3-9.2c2.4-0.2,5.5,4.2,7.2-0.5
	C1810.8,146.4,1809,142.4,1805.2,141.9z"/>
<path class="st2" d="M1797.6,5.9c-5.1,1.8-9.1,7.3-11.6,12.9c-2.1,4.7-5.9,7.5-10.8,9.1c-3.3,1.1-6.6,2.3-9.8,3.6
	c-5.3,2.1-9.7,6.1-6.9,11.6c2.8,5.3,8.5,1.3,11.7-0.6c7.1-4.4,15.3-6.7,23.7-6.7c2,0,4.1-1.2,6-2.2c8.5-4.5,16.5-10.4,27-9.3
	c1.3,0.1,3-1.2,4.1-2.2c6.3-6.5,13.5-10.1,22.8-7.7c9.2-0.2,19.7-6.5,18.4-12.3c-0.2-0.7-0.3-1.3-0.3-1.9h-65.4
	C1803.9,2.7,1800.9,4.6,1797.6,5.9z"/>
<path class="st2" d="M1842.3,247c-0.5,0.8-1,0.9-1.7,0.2l-3.1,0.1c-14.1,13.5-27.2,28.3-47.1,33.4c-2.4,2.5-4.8,5.1-7.1,7.6
	c-8.5,9.1-10.4,18.7-4.5,29.6c3.2,6,0.6,6-4,6.4c-16.3,1.4-31.9,5.3-46.2,13.4c-7.3,4.1-14.2,9-15.8,17.7c-2.1,0.2-4.3,0.5-6.3,1
	c-0.8,0.1-1.6,0.3-2.4,0.4c-14.4,1.8-27.7-4.2-42-4.8c-15.6-0.7-31.2,1.8-46.3,5.6c-6.5,1.6-11,1.3-16-4.3
	c-8.7-9.7-21.2-10.7-33.5-11.2c-3.5-0.1-7,0-10.5,0c-12.9,0.2-26.2,2.3-37.6-6.3c-14.7-2.1-29.3-2.3-43.8,1.7
	c-7.1,6.2-14.5,10.6-24.9,9.9c-26.2-1.8-50.9,3.3-72.7,18.9c-1.7,1.4-3.8,2.1-6,2c-7.6-0.5-15,0.5-22.5,1.6
	c-14.9,2.2-29.1,5.8-37.9,19.7c-3.2,11.8-3.2,11.8-16.9,12.4c-20.5,0.9-40.4,4.5-59.7,11.9c-7.8,3-13.5,9.8-21.9,11.5
	c-6.1,9.3-12.8,18.4-18.3,28.1c-7.7,13.9-20.2,19.5-34.8,21.6c-11.4,1.6-22.9,3.1-34.4,3.3c-32,0.5-63.8,2.2-95.7,5
	c-21.1,1.8-41.9,6.2-61.9,13.3c-11,3.9-21.5,9.5-32.2,14.3c1.5,5.9,8.3,4.3,11.3,8.1c7,2.7,11.3,8.1,14.5,14.6
	c-0.8,7.7,3.8,6.2,8.2,4.9c0.6-1.2,2-1.7,3.2-1.5l4.8-0.1c3.2-0.6,6.3-2.2,9.8-1.5c1.3,0,2.7-0.1,4-0.1c19-0.3,37.3,1.4,51.2,16.8
	c0.6,0.7,2,0.6,3,0.9c10.3-12.7,21.6-23.8,38.9-26c0.7-1.1,2-1.7,3.3-1.6c8.5-3.1,17.5-4.8,26.6-4.8c3.3,0,6.9,0.1,7.3-4.4
	c1.3-13.8,12.1-19.1,22.5-22.4c12.3-3.9,23.5-7.7,33.4-16.9c11.8-10.9,27.5-10.3,42.5-7.4c5.7,1.2,11.7,0.4,16.9-2.2
	c15.6-7.2,32.2-10,49.4-7.1c12.6,2.1,24.8,2.1,37.3-1.5c18.8-5.5,37.1-4.6,53.2,8.4c3.1,2.5,6.9,2.4,10,1.3
	c24.4-8.2,49.7-8.3,75-7.9c-0.1-1.3,0.5-2.5,1.7-3.1c5.1-14.3,18-20.2,29.8-26.9c13.7-7.8,29-10.9,44.7-12c6.2-0.5,10.3-2.4,9.9-9.7
	c-0.3-5.3,3-9.5,6.9-12.1c12.5-8.7,27.9-12.1,42.8-9.4c7.3,1.2,14,1.4,19.2-5.9c6.2-8.8,16.1-9,25.6-7.5c4.7,0.9,9.6,0.6,14.2-0.9
	c9-3.1,18.7-4.2,28-2.1c8.8,1.9,15,8.1,24.5,5.4c1.7-0.5,3.3-1.2,4.8-2c3-1.6,5.9-3.7,7.6-6.7c0.5-0.8,0.8-1.7,1-2.7
	c5.8-0.6,11.5-1.4,16.8-4.7c17.8-10.9,36.3-7,54.6-1.5c11,3.3,19.9,8.7,19.8,22.1c0,2.9,1.8,3.5,4.2,3.9c9,1.5,16.6,5.9,23.3,11.5
	c1.9-0.4,1.6-1.6,1.6-2.6c0.4-15.4,6.3-21.6,22.1-23.8c5.6-0.8,11.1-2.1,16.6-3.4c2.5-0.4,4.4-2.4,4.9-4.9c0.5-2.6-1.6-3.6-3.4-4.9
	c-10.6-7.1-10.4-14,2.9-18.9c10.1-3.7,16.2-10.4,17.3-21.9c0.7-7.2,5.6-11.5,11.1-14.7v-70c-1.5,0.4-3,0.7-4.6,0.9
	C1886.5,235.6,1863.9,238.9,1842.3,247z"/>
<path class="st2" d="M68,334.1c15.1,5.8,28.1,20.2,22.9,40.9c-1.2,4.9,0.4,6.5,5.1,6.3c7.5-0.4,14.2,1.9,20.9,5.1
	c12.4,5.9,25.5,6.5,38.6,2.6c4.3-1.2,8.3-1,12.7-0.5c11.1,1.1,20.5,6.5,29.2,12.6c7,4.9,10.5,1.4,13.4-3.9c1.7-3.1,3.2-5.8,6.1-8.1
	c9.3-7.3,37.9-1.7,43,13.5c4.2,12.7,16.9,17.7,29.5,13.6c12.1-4,24.1-8.9,37-10.1c15.7-1.5,31.6-1.8,45.5,7
	c11.5,7.2,13.1,14.4,6.1,21.3c-5.1,5-11.1,9.4-18.8,10.1l-1.6,3.4h6.5c9.1,2.6,18.4,1,27.6,1.5l13,0h6.5c4.5,0.5,7.1-1,6.5-6.1
	c-0.3-2.4-0.3-4.9,3.1-5.4c2.2-7.2,8.5-9,14.7-10.4c4.7-1.1,7.5-2.3,8.6-8.3c1.4-7.7,7.8-12.1,15.7-13.6c9.5,0,19.1-1,27.5,4.8
	c2.8,0.5,5.6,1,3.3,4.9c2,5.2-3.3,9.5-1.7,14.7h6.5h4.9c2.3,0.1,4.7-0.8,6.5,1.5l13,1.7c3,0.4,5.9,1,6.7,4.7c3.1,0,6.3-0.4,8,3.2
	c8.2,4,10.5,8.6,8.1,16.3l-0.2,6.5c0,3.1-1.7,4.7-4.7,5c0.7,2.8-2,6.9,3.2,7.9c10.1-3.4,20.6-0.6,30.8-1.5
	c11.9-3.4,23.8-0.8,35.7,0.1c5.2,0.6,9.5,2.5,11.5,7.9c2.5-0.2,4.7,1,6.9,2c12.3,5,25.3,6.3,38.3,7.9c3.8-6.2-0.2-9.9-4.4-13.6
	c-7.1-6.4-16.2-8-25-10.5c-7.1-2-11.5-5.9-11.3-14.3c0.2-9.5-2.5-18.5-11.3-23.6c-6-3.5-12.8-6.4-19.8-6
	c-21.9,1.3-38.9-12.3-59.2-18.1c17.2-9.7,19-12.2,16.3-22.8l-0.2,0.1l-1.5-1.9c-0.7-1.4-1.5-2.9-2.3-4.3c-4.8-3.9-10.6-5.7-15.9-8.6
	c-5,0.5-10.5,2-10.3-6.1c-4.6-4.9-9.3-9.2-15.9-11.8c-15.4-6.1-31.3-9.5-47.6-11.5c-16.9-2-33.6-1.6-49.5,5.3
	c-11.5,10.7-24.9,14.6-40.4,12.2c-8.1-1.2-12.5,2.3-16.4,11.9c1.5,3.7,4.8,7.9-2.9,8.4c-8.4,0.8-16.6-1.3-24.9-1.7
	c-16.3-1-31.5,2.2-45.7,13.8c1.1-8.3,1.7-15-4-20.4c-2.6-2.5,1.1-3.5,2.5-4.6c9.5-8.4,9.7-12.5,1.2-22.1
	c-5.6-6.3-12.6-10.8-19.6-15.3c-10.7-7-22.5-7.6-34.6-5.3c-3,0.6-6,1.4-8.6-0.2c-5.6-3.3-11.2-2.9-17-1
	c-5.1,8.8-14.9,15.4-12.7,27.5l0.7,0.9l-0.9-0.7c-10-5.2-18-12.3-22.7-22.8c-1.9-4.2-2.5-8.3,1.6-11.7c0.2-11.1-0.5-12-11.4-14.2
	c-1.8-0.4-3.5-1.3-4.9-2.6c-4.8-4.5-10.4-6.1-16.9-5.7c-3.5,0.2-7.2,1-10.8-1.7c-17.2-12.9-36.6-14.9-57.1-10.6
	c-5.2,1.1-10.7,4.3-15.6,2.3c-12.7-5.4-26-6-39.4-6.5L0,275.4v50.7C23.2,322.7,45.8,325.5,68,334.1z"/>
<path class="st1" d="M141.2,252.4c22,5.2,44.2,9.4,66.4,13.7c30.6,5.9,61.3,11.3,92.2,15.7c19.7,2.8,39.3,5.9,59,8.6
	c23.2,3.1,46.4,6,69.6,8.8c25.1,3.1,50.2,6.1,75.3,9c23.2,2.7,46.5,5.2,69.7,7.7c3.1,0.3,6.3,0,11,0c-2.3-1.4-3-1.9-3.7-2.1
	c-31.2-8.3-62.3-17.1-93.7-24.6c-47.1-11.2-94.4-21.7-141.6-32.3c-28.4-6.3-56.8-12.4-85.2-18.3c-57.3-11.9-114.8-23.5-171.8-37.6
	c-10.7-2.6-21.1-6.6-31.5-10.2c-3.3-1.1-5.7-3.6-5.2-7.3c0.4-3.6,3.6-3.6,6.3-3.6c8.4,0.1,16.7-0.4,25,1.1
	c20.6,3.7,41.3,7.1,62,10.4c3.6,0.6,9.3,4.2,10.5-0.6c0.9-3.5-5.6-6-9.4-7.6c-21.8-9.6-44.4-16.5-67.4-22.3
	c-26.1-6.6-52.4-12.6-78.7-18.8v94.6c23.5,0.4,47,1.9,70.4,3.8C94.3,242.8,117.9,246.7,141.2,252.4z"/>
<path class="st2" d="M127.2,0.3c0.6,0.8,1.4,1.6,2.2,2.2c5.1,3.9,10.9,5.7,16.7,7.5c5.4,1.7,11,3.4,14.3,8.2
	c6.6,9.3,17,9.1,26.1,11.5c2.4-0.2,4.9,0.4,5.6-2.6c0.6-2.7-1.2-4.1-3.2-5c-8.7-4-16.9-9.4-26.3-11.9c-5.6-1.6-9.3-4.2-9.3-9.9
	L127.2,0.3z"/>
<path class="st4" d="M34.9,475.4c0.5,0.1,1,0.2,1.4,0.2c1.3,0,2.5-0.4,3.5-1.1c17.7-10.7,37.9-12.6,57-13.1h1.2
	c6.7-0.1,13-0.3,17.1-7.7c2-3.6,6.1-5.5,10-7.4l0.7-0.4c10.6-5.1,22-8.3,33.8-9.3c6-0.5,11.4-0.8,16.3-0.8
	c22.6,0,39.6,5.8,53.4,18.3c1.3,1.4,3.1,2.2,5,2.4c0.5,0,0.9-0.1,1.4-0.2c4-1,8.1-1.5,12.3-1.5c4.9,0.1,9.8,0.5,14.7,1.1l4,0.4
	c20.2,2.1,38.6,10.2,54.8,24.1c3.7,3.1,7.3,7.1,6.5,12.7c0,0,0,0.1,0,0.1c0.2,2.9-0.7,5.5-1.6,8.3c-0.2,0.8-0.5,1.5-0.7,2.3
	c-1.8,6.1-1.8,11.3,0.1,15.9c1.7,4.1,4.8,6.6,8.2,6.6c1.7,0,3.3-0.7,4.5-1.8c2.8-0.9,5.5-2.1,8.2-3.2c5.5-2.3,11.2-4.6,17.5-5.1
	c7.1-1.1,14.2-1.7,21.4-1.7h2.9c1,0,1.9-0.1,2.9-0.1c12.3,0,24.3,4.4,36.7,13.5c2.6,2,5.3,4,7.9,5.9c8.4,6.4,17.1,13.1,26.9,18
	c0.1,0,0.2,0.1,0.2,0.1c0.1,0,0.2,0,0.3-0.1c0.8-0.7,1.7-1.2,2.7-1.3c1.1,0,1.2,1.9,1.3,4.1c0,0.1,0.1,0.2,0.1,0.3
	c2.6,2.7,6,3.5,9.2,4.3c1.4,0.3,2.8,0.7,4.1,1.2c9.7,3.6,18.3,5.3,26.4,5.3c8.8,0,17.5-2.3,25.1-6.7c6.8-3.9,14.3-6,21.6-8l3.1-0.8
	c15.9-4.4,31.9-5,45.5-5c4.5,0,8.9,0.1,12.7,0.2c1.9,1.1,4.2,1.7,6.4,1.7c0.6,0,1.2,0,1.9-0.1h0.1c5.3,0,10.3,1.8,15.2,3.5
	c3.3,1.3,6.8,2.3,10.3,3.1c3.1,3.4,6.3,5.1,9.6,5.1c3.9,0,8.2-2.2,13.7-6.8c4.4-0.9,9-1.5,13.5-1.9c5.7-0.5,11.5-1.1,17.2-2.8
	l9.6-0.1h16.2c3,0.2,6,0.5,9,0.9c3.8,0.6,7.7,0.9,11.6,1c1.3,0,2.5,0,3.7-0.2c4.4,2.4,9.2,3,13.9,3.6c2.4,0.3,4.8,0.6,7.1,1.1
	c3.3,2.2,7.2,3.4,10.9,4.5c4.1,1.2,8.3,2.5,11.7,5.2c0.1,0.1,0.2,0.1,0.2,0.1c1.9,0.4,3.7,1.2,5.2,2.4c2,1.3,4.1,2.6,6.7,2.6h0.7
	c1.5,3.9,4.8,5.4,8,6.3c0,1.3,0.8,2.6,1.9,3.2c1.3,1.1,2.4,2.4,3.4,3.8c2,2.5,4,5.1,7.6,6c0,2.5,0.7,4.7,4.3,4.9
	c2.2,0.2,4.3,0.5,6.4,0.9c0.9,0.2,1.9,0.4,2.8,0.5h0.1c0.2,0,0.4-0.1,0.5-0.3c2.1-4.8,6.3-5,10.4-5.2c1.2,0,2.5-0.2,3.7-0.3
	c25.7-4.5,51.7-6.8,77.8-6.9c7.7,0,15.5,0.2,23,0.7c1.3,0.1,2.7,0.1,4.2,0.1c6-0.1,11.9-0.5,17.8-1.3c1.8-0.2,3.5-0.4,5.3-0.6h0.4
	c0.7-0.1,1.4-0.1,2-0.1c1.6-0.1,3.1,0.7,4,2.1c5.7,7.7,13.6,11.9,22.2,11.9c4.8-0.1,9.6-1.3,13.8-3.5c1.2-0.6,2.5-0.9,3.8-1
	c0.7-0.1,1.5-0.2,2.2-0.4h0.2c2.3,0.2,4.5,0.8,6.6,1.9c2.2,1.2,4.6,1.8,7,2h0.5c4.3,1.1,8.7,1.7,13.1,1.7c17,0,33.9-7.8,44.1-20.3
	c6.4-7.9,15.7-12.4,29.3-14.2c1.5-0.2,3-0.4,4.6-0.4c4.2,0,7.2,1.4,10.2,4.8c4.6,5.2,12,7.5,17.4,8.5c2,0.4,3.2,0.7,3.6,1.5
	s0.2,1.7-0.6,3.5c-1.6,3.9-1.9,7-0.7,9.4s3.8,4.3,8.1,5.6c3.2,1,6.5,1.5,9.8,1.5c6.5-0.1,12.9-1.8,18.7-4.8l0.4-0.2
	c0.9-0.5,1.8-0.9,2.8-1c0.9,0.1,1.8,0.5,2.4,1.2c5.7,5.3,13.1,7.8,23.3,7.8h0.7c2.3,0,4.7,0.1,7,0.1s4.7,0.1,7.1,0.1
	c5.4,0.1,10.9-0.6,16.1-2l1.3-0.2c7-1.3,14.3-2.7,19-9.4c0.8-1.1,2.1-1.7,3.5-1.6c0.6,0,1.1,0,1.7,0.1c4.6,3.1,8.6,4.6,12.6,4.6
	c5,0,9.7-2.3,15.7-6c0.7-0.5,2.4-1.6,2.4-2.8c-0.4-7.6,4.8-8.8,10.2-10.1l1.8-0.4c4.5-0.9,8.1-4.1,9.8-8.3l7.4,3.5
	c4.5,3.1,9.9,4.7,15.4,4.7c5.1-0.1,10.2-1.2,14.8-3.2c2-1,4.2-1.5,6.4-1.7c1.6,0,3.1,0.5,4.4,1.4c11.3,7.9,24.9,11.6,42.5,11.6
	c1.4,0,2.8,0,4.3-0.1c0.1,0,0.1,0,0.2,0c0.1,0,0.1,0,0.2,0c3.4-1.5,5.5-4.3,7.5-7c0.7-1,1.5-2,2.2-2.9l3.1-3.1
	c2.6-0.1,4.4-1.6,6.2-3c0.5-0.4,1-0.8,1.5-1.1c7.4-5.4,15.6-9.7,24.3-12.8c1-0.3,2-0.6,3.1-0.8c2.6-0.5,5.2-1,7.1-3.4l9.5-1.7
	c12-1.8,23.8-3.4,35.7-3.4c3,0,6,0.1,8.8,0.3c1.3,0.1,2.6,0.2,3.9,0.2c10.7,0,21.1-3.2,32.9-10c0.6-0.3,1.2-0.6,1.7-0.9
	c2.2-1,4.7-2.2,5-5.5l2.8-1.5c0.2-0.1,0.3-0.2,0.3-0.4c0.3-4.8,2.2-4.8,2.8-4.8c1.1,0,2.6,0.6,4.6,1.9c0.1,0.1,0.2,0.1,0.3,0.1
	c0.1,0,0.2,0,0.2,0l6.4-3.3l5.3-2c4.9-1.8,10-3.7,14.9-5.7c0.3-0.1,0.6-0.2,0.9-0.2c0.9-0.2,1.9-0.4,2.4-1.3
	c0.3-0.9,0.2-1.8-0.4-2.6c-3.6-7.2-2.1-14.5-0.7-21.6c0.4-2,0.8-4.1,1.1-6.2c0.9-5,4.6-9.1,9.5-10.4c6.5-1.9,13.5-3.6,20.6-3.6
	c3.6,0,7.2,0.5,10.7,1.5c1.3,0.4,2.6,0.6,4,0.6c1.5,0,3-0.4,4.3-1.1c8.2-5,17.5-5.3,26.5-5.6h1h0.8c4.8-0.1,9.5-1.2,13.9-3.1
	c8.9-0.6,14.6-6.4,20.2-12l1-1c2.5-0.3,5-0.8,7.4-1.7c2.6-1,5.4-1.6,8.2-1.7c0.6,0,1.3,0,1.9,0.1h0.1c5.3,0.1,10.5,0.5,15.7,1.4
	c2.6,0.5,5.2,0.8,7.8,0.8c2.9,0,4.7-0.6,5.6-2c1.4-2,0.8-5.4-2-12.4c-0.1-0.4-0.3-0.7-0.5-1c-0.1-0.1-0.1-0.2-0.1-0.3l1.6-7.6
	c9.6-3.5,17.4-5,24.7-5c8,0,15.8,2.1,22.6,6.3c6.5,3.9,14.3,4.6,21.1,5.3c0.6,0.1,1.3,0.1,1.9,0.1c6,0,10.7-2.9,13.9-8.6
	c7-12.4,21.3-22.9,36.8-28v-85.1c-6,3.3-10.9,7.8-11.6,15.2c-1.1,10.8-6.5,17.6-17,21.5c-6.7,2.4-10.3,5.5-10.7,9s2.2,7,7.7,10.8
	l0.6,0.4c1.6,1.1,3,2,2.7,4c-0.4,2.3-2.2,4.1-4.5,4.5l-1.7,0.4c-4.8,1.1-9.8,2.3-14.8,3c-16.2,2.2-22.1,8.5-22.6,24.2
	c0,0.1,0,0.3,0,0.4c0,0.8,0,1.4-1,1.6c-7.6-6.4-15.2-10.1-23.3-11.5c-2.5-0.4-3.8-1-3.8-3.4c0.1-14.6-10.7-19.7-20.2-22.5
	c-11.6-3.6-23.6-5.5-35.7-5.6c-16.2,0-29.3,4-39,11.8c-1.4,1.1-2.8,2.4-4,3.6c-1.9,1.9-3.9,3.6-6.1,5.1c-2.1,1.5-4.6,2.3-7.2,2.3
	c-3.3,0-6.4-1.3-9.7-2.6c-5.5-2.5-11.5-3.7-17.6-3.6c-6.3,0-12.5,1.1-18.3,3.2c-2.7,0.9-5.6,1.4-8.4,1.4c-1.8,0-3.7-0.2-5.5-0.5
	c-2.7-0.5-5.4-0.7-8.1-0.7c-8.1,0-13.9,2.8-18,8.5c-2.7,4.2-7.4,6.6-12.3,6.3c-2.1,0-4.3-0.2-6.4-0.6c-3.4-0.6-6.9-0.9-10.4-0.9
	c-11.7,0.1-23,3.7-32.6,10.3c-4.9,3.3-7.4,7.8-7.1,12.6c0.4,7-3.4,8.7-9.4,9.2c-18.5,1.3-32.7,5.2-44.9,12.1c-1.2,0.7-2.4,1.4-3.6,2
	c-10.7,5.9-21.7,12-26.3,24.9c-1.1,0.6-1.7,1.8-1.7,3c-5.2-0.1-9.2-0.1-12.9-0.1c-18.6,0-40.5,1-61.8,8c-1.3,0.4-2.6,0.7-3.9,0.7
	c-2,0-4-0.7-5.6-1.9c-9.3-7.7-21-11.8-33-11.7c-7,0.1-14,1.2-20.7,3.2c-6.8,2-13.9,3-21,2.9c-5.4,0-10.8-0.5-16.1-1.4
	c-4.4-0.7-8.9-1.1-13.4-1.1c-12.6,0.1-25,2.9-36.3,8.3c-3.5,1.7-7.3,2.6-11.2,2.7c-1.8,0-3.6-0.2-5.4-0.5c-5.5-1.1-11-1.7-16.6-1.8
	c-11,0-19.6,3.1-26.4,9.4c-9.6,9-20.3,12.8-33.2,16.8c-10,3.1-21.6,8.5-22.9,22.8c-0.3,3.6-2.8,3.9-6,3.9h-1c-9,0.1-18,1.7-26.5,4.8
	c-1.4-0.1-2.7,0.5-3.5,1.6c-17.4,2.2-29,13.7-38.8,25.9c-0.2-0.1-0.5-0.1-0.8-0.1c-0.6,0-1.2-0.2-1.7-0.5c-13.5-15-30.9-17-47.8-17
	c-1.2,0-2.5,0-3.9,0l-2.8,0.1h-1.2c-0.6-0.1-1.2-0.2-1.8-0.2c-1.8,0.1-3.5,0.4-5.2,1c-0.9,0.3-1.9,0.5-2.8,0.7l-4.8,0.1h-0.6
	c-1.2-0.1-2.4,0.5-3.1,1.6h-0.1c-1.5,0.5-3,0.9-4.6,1c-0.7,0.1-1.5-0.2-2-0.7c-0.7-0.8-0.9-2.3-0.7-4.6c0-0.1,0-0.2,0-0.3
	c-3.7-7.7-8.4-12.4-14.6-14.8c-1.3-1.6-3.3-2.3-5.2-3c-2.6-0.9-5.1-1.7-5.9-4.8c-0.1-0.2-0.3-0.4-0.5-0.4l0,0
	c-1.8,0.2-3.7,0.2-5.6,0.2c-11.6,0-23-3.1-33.4-6.5c-15.5-5-31.3-5-46.6-5.1h-4.4c-3,0-5.9,0-8.9,0c-3.3,0-6.2,0-8.9,0H826
	c-1.9-0.1-3.9,0.1-5.8,0.6c-6.9,2.5-14.3,3.7-21.6,3.8c-3.2,0-6.5-0.3-9.7-0.8c-2.3-0.4-4.5-1-6.7-1.7c-3.1-1.1-6.4-1.8-9.8-2h-0.7
	c-17.2,0-33.1,4.3-46.5,8.5c-4.6,1.5-9.4,2.4-14.3,2.5c-5.4,0-9.9-1.3-13.5-3.9c-5-3.7-10.8-5.1-16.5-6.4c-6.1-1.5-11.9-2.9-16.7-7
	c-0.1-0.1-0.2-0.1-0.3-0.1l-1.8-0.2c-12.2-1.4-24.7-2.9-36.3-7.6c-0.4-0.2-0.8-0.3-1.2-0.5c-1.7-0.9-3.5-1.4-5.4-1.5h-0.1
	c-1.8-4.6-5.6-7.1-11.8-7.9c-2.6-0.2-5.2-0.5-7.8-0.8c-4.8-0.6-9.7-0.9-14.6-1c-4.5-0.1-9,0.5-13.4,1.7c-1.4,0.1-3,0.2-4.7,0.2
	c-2.2,0-4.5-0.1-6.8-0.2s-4.5-0.2-6.8-0.2c-4.2-0.1-8.5,0.5-12.5,1.7c-3-0.6-2.8-2.4-2.6-4.5c0.1-0.8,0.1-1.6,0.1-2.4
	c2.8-0.2,4.8-2.6,4.6-5.4l0.2-6.4c2.4-7.9,0-12.8-8.2-16.8c-1.7-3.3-4.7-3.3-7.4-3.4h-0.6c-1-3.5-4-4.2-7-4.7L507,431
	c-0.9-1.1-2.4-1.7-3.8-1.6c-0.5,0-0.9,0-1.4,0.1s-0.9,0.1-1.3,0.1h-5h-6.2c-0.5-2.2,0.2-4.2,1-6.4c0.9-2.4,1.8-5,0.8-7.7
	c0.8-1.4,1-2.6,0.6-3.4c-0.6-1.3-2.4-1.7-4.3-2c-6.7-4.5-14.2-4.9-20.8-4.9h-3.3h-3.3h-0.4c-8.9,1.8-14.8,6.9-16.1,14
	c-1.1,5.8-3.8,6.8-8.2,7.9c-6.8,1.6-12.7,3.5-15,10.4c-3.8,0.7-3.4,4.2-3.2,5.9c0.2,2-0.1,3.5-0.9,4.4c-1,0.9-2.3,1.3-3.6,1.2
	c-0.5,0-1,0-1.5-0.1h-6.5h-12.9c-1.4-0.1-3-0.1-4.8-0.1c-1.6,0-3.1,0-4.7,0.1s-3.1,0.1-4.7,0.1c-4.5,0.1-9-0.4-13.3-1.5h-0.1h-5.7
	l1.2-2.4c8.3-0.9,14.4-5.9,18.8-10.2c3.2-3.1,4.7-6.4,4.3-9.6c-0.5-4.2-4-8.4-10.6-12.6c-8.5-5.4-18.4-7.9-31.2-7.9
	c-4.2,0-8.7,0.2-14.6,0.8c-10.6,1-20.7,4.5-30.4,7.8c-2.2,0.8-4.5,1.5-6.7,2.3c-2.7,0.9-5.6,1.4-8.4,1.4
	c-9.3,0.2-17.6-5.8-20.4-14.7c-3.5-10.6-18.7-17-31.4-17c-5.3,0-9.7,1.2-12.4,3.3c-2.9,2.3-4.5,5.1-6.1,8.1l-0.1,0.2
	c-1.7,3-3.8,6-7,6c-2.1-0.2-4.1-0.9-5.7-2.3c-8-5.6-17.7-11.5-29.5-12.7c-2-0.2-4-0.4-6-0.4c-2.3,0-4.7,0.3-6.9,0.9
	c-5.2,1.5-10.7,2.3-16.1,2.4c-7.6,0-15.2-1.7-22.1-5c-5.1-2.4-11.9-5.2-19.5-5.2c-0.6,0-1.1,0-1.7,0H95c-1.8,0-3-0.4-3.6-1.1
	s-0.7-2.3-0.2-4.5c5.5-21.9-9.1-36-23.2-41.5c-15.6-6.1-32.3-9.3-49.1-9.4c-6.4,0-12.7,0.5-19,1.4V471h1.7
	C14.2,471,25,472.4,34.9,475.4z M1555.9,438.9c0.8-0.7,1.5-1.4,2.2-2.1c0.9-0.9,2-1.7,3.1-2.2c0.7-0.4,1.4-0.8,2-1.3
	c3.4-2.5,7.3-3.6,11.2-4.7c3-0.7,5.9-1.8,8.7-3.1l16-1.6c1.2,0.3,2.5,0.4,3.7,0.4c5,0,9.6-2.1,14.9-6.8c11-9.8,25-12.7,37.2-14.7
	c5.2-0.8,10.6-2,15.4-6.6c4.6-4.3,11.4-6.9,20.4-7.6c5-0.4,8.8-0.6,12.3-0.6c14.4,0,24.7,3.2,33.4,10.2c1.3,1,2.9,1.6,4.6,1.6
	c1,0,1.9-0.2,2.9-0.5c4.9-1.4,9.8-2.3,14.9-2.8c1.8-0.2,3.7-0.5,5.6-0.8c2.6-0.4,5.3-0.6,8-0.6c7.5,0,14.9,1.4,22,2.8
	c4,0.8,8.1,1.5,12.2,2.1l-0.1,1.1l-4.9-0.6c-4-0.5-8-1-12-1.5c-3.3-0.4-6.6-0.6-9.9-0.6c-10.4,0-18.5,2.6-25.3,8.1
	c-1.5,0.3-3,0.9-4.3,1.8c-1.4,1-3.1,1.6-4.8,1.7c-0.6,0-1.2-0.1-1.7-0.3c-2.9-1.3-6-1.9-9.2-2c-3.1,0-6.2,0.7-9,1.9
	c-5.6-0.1-10.8,3.1-13.2,8.1c-0.3,0.1-0.7,0.1-1,0.1c-2.1,0-3.8-1.2-5.5-2.5c-0.7-0.5-1.4-1-2.1-1.5s-1.6-1-2.4-1.5
	c-4.3-2.7-8.8-5.5-14.4-5.9l-8.1-1.6h-0.1c-1.9,0-3.8,0-5.6-0.1s-3.8-0.1-5.7-0.1c-2.3,0-4.7,0.1-7,0.3c-0.8,0.1-1.6,0.2-2.4,0.2
	c-6,0.5-12.1,1.1-16.8,6.1c-2.6,0.2-4.9,1.4-6.5,3.4c-4.4,2.3-7.8,6.4-9.2,11.2c-1.2,4.2-3.1,4.9-6.6,4.9h-1h-0.2
	c-0.9,0-1.8,0-2.8,0c-4.5,0-9.2,0.6-12.7,4.8c-0.5,0-0.9,0-1.4,0.1h-0.1c-3,1.2-5.8,2.8-5.2,6.9c-0.8,1.2-2,1.2-3.4,1.3h-0.9
	c-4.1-1.1-8.4-1.6-12.6-1.6c-5.7,0.1-11.4,0.7-17,1.8c-1.3,0.3-2.5,0.8-3.6,1.4c-1.2,0.7-2.5,1.2-3.8,1.4c-0.8,0-1.6-0.5-1.8-1.3
	C1550.9,443.4,1553.5,441.1,1555.9,438.9L1555.9,438.9z M1276.1,512.3c3.9-0.3,7.9-0.6,8.2-3.5c0.5-5.3,3.4-8.4,6.4-11.7
	c1.5-1.6,2.9-3.3,4.1-5.1c4-0.4,8-1.3,11.8-2.6c4.2-1.3,8.5-2.6,12.9-2.6c1.3,0,2.7,0.1,4,0.4l6.5,1.5c1.4,0.5,2.9,0.8,4.4,0.8
	c2.4,0,4.7-0.9,6.5-2.4c7.3-5.6,15.2-8.5,23.5-8.5c6.4,0.1,12.6,1.5,18.4,4.2c3.3,1.6,6.9,2.5,10.6,2.6c0.7,0,1.5,0,2.2-0.1
	c1.2-0.2,2.4-0.2,3.6-0.2c4.9,0,9.7,1.2,14.4,2.3c1.7,0.4,3.5,0.9,5.3,1.2c0.7,1.1,2,1.7,3.2,1.6c5.3,9.4,13.2,16.3,24,21l0.1,8.8
	c-2,1-3.8,2.5-5.2,4.3c-1.1,1.4-2.5,2.7-4,3.6l-4.4-1.4c-0.5-0.7-0.8-1.5-1-2.4c-0.5-1.8-1.1-3.8-3.7-4.2c-1.8-6-6.8-6-11.1-6.1
	c-0.9,0-1.7,0-2.5-0.1c-3.8-0.3-8.3-0.9-12.5-3.4c-1.2-0.9-2.4-1.8-3.6-2.8c-4.4-3.5-9-7.1-15.4-7.1h-0.4c-1.1-1.4-2.6-1.5-4-1.5h-1
	c-3.6-1.3-7.5-1.9-11.4-1.8c-2.2,0-4.4,0.1-6.6,0.3s-4.3,0.2-6.5,0.2h-1c-1.8,0-2.5,1.9-2.7,2.9h-0.5h-0.8h-0.9
	c-1.5-0.1-3,0.5-4,1.6c-4.8,0.1-10.2,0.8-13,6.5H1319c-2.3-0.8-4.7-1.3-7.1-1.3c-5.2,0-9.6,2.5-14.4,8.1c-0.6,0.8-1.5,1.2-2.4,1.2
	c-1-0.1-1.9-0.3-2.8-0.8c-1-0.5-2.1-0.8-3.2-0.8c-0.3,0-0.7,0-1,0.1c-1.7-1.1-3.7-1.7-5.8-1.8c-2.1,0-4.1,0.7-5.8,1.9
	c-0.3,0-0.6,0-0.8,0h-1h-1c-1.6,0-2.6-0.4-2.9-2.2C1272.5,512.6,1274.3,512.3,1276.1,512.3z"/>
<path class="st2" d="M1330.1,488.2c3.7,1.3,7.1,1.2,10.5-1.5c13.2-10.1,27.6-10.9,42.4-4.3c4.1,1.8,8.1,3,12.5,2.5
	c5.3-0.7,9.7,0.9,14.7,1.7c4.8,0.7,10-1.3,14.3,1.7c4.5,3.1,4.7,9.9,8.5,13.8c4.1,4.3,11.5,4.3,15.1,9c2.1,3,2.4,6.9,0.9,10.2
	c-1.5,3.3-4,6-7.1,7.8c-4.9,3-12.3,3.9-15.7-0.8c-0.9-1.5-1.6-3.1-2.2-4.7c-1.7-3.8-5.1-7.3-9.3-7.6c-2.2-0.2-4.4,0.5-6.6,0.9
	c-6.6,1.1-13.4-0.5-18.7-4.5c-4.4-3.3-7.9-8.3-13.3-9.7c-3.3-0.9-6.8-0.2-10.1-0.8c-2.4-0.4-4.7-1.4-7.1-1.8
	c-10.1-1.7-18.5,7.7-28.5,10.1c-4.4,1.1-9,0.8-13.3,2.3c-7.7,2.7-13.7,11.2-21.8,10.3c-3.4-0.4-6.5-2.4-9.9-2.6
	c-3-0.2-5.9,1.1-8.8,1.9s-6.3,1.1-8.7-0.7c-3.5-2.7-2.6-8.8,0.8-11.5s8.4-2.9,12.8-2c-1.5-6.5,0.5-13.2,5.2-17.9
	c4.8-4.5,11.3-6.8,17.9-6.2c4.9,0.4,9.4,2.3,14.3,2.8C1322.8,487,1326.4,486.8,1330.1,488.2z"/>
<path class="st3" d="M1887.7,501.9c-14.8,2.3-29.9,1.9-44-1.8c-8.7-2.3-17.1-4-26-3.8c-12.1,0.2-17,4.3-20,15.9
	c-0.6,2.4-1.9,4.5-4.6,5.2c-3.9,1-7.7,2.6-11.6,3.2c-25.2,4.2-50.7,4.8-75.9,8.2c-13.9,1.9-27.8,4.6-38.7,14.4
	c-3.4,3.4-8.1,5.2-12.9,5c-22-0.2-36.5,10-44.2,30.6c-1,2.6-1.9,4.8-4.7,6.1c-16.1,7.3-27.7,19.9-38.4,33.4
	c-1.5,1.9-4.9,3.4-3.7,7.2c3.8-1.7,7.3-3.1,10.6-4.8c15.2-7.5,31.4-6.5,47.6-6c6.7,0.2,9.1-2.1,9-8.8c-0.2-11.8,0.8-12.4,12.4-12.4
	c3.2,0,6.4,0.3,9.6,1.1c13.4,3.2,26.6,2.9,38.7-4.9c2.2-1.4,5.2-3,4.7-6c-0.4-2.6-3.7-1.3-5.5-2.3c-7.2-4-15.2-8.1-14.3-17.7
	c0.7-7.9,5.4-14.2,13.4-17.7c17.4-7.7,35.6-4.7,53.4-3.5c14.9,1,29.5,5.8,44.4,6.8c11.3,0.7,23.2-0.5,30.5-12.3
	c3.4-5.7,8.8-9.8,15.1-11.6c17.2-4.4,34.4-5.9,51.3,1.7c3,1.4,6.4,3.2,6.3,6.5c-0.1,3.8-4,4.2-7.2,5.1
	c-13.6,3.9-21.8,15.1-20.5,27.6c0.5-0.1,1.2-0.1,1.5-0.4c14.2-14,31-19.6,49.7-18.8v-53.3c-0.7,0.7-1.4,1.3-2.2,1.9
	C1904.5,501.4,1895.8,500.7,1887.7,501.9z"/>
<path class="st3" d="M1807.4,181.4c-55.6-3.2-40.3,16-25.8,17.6c43.9,4.1,88.1,4.9,132.1,2.3v-23.1
	C1878.9,181.7,1842.2,183.4,1807.4,181.4z"/>
<path class="st2" d="M1881.1,84.3c0.6,2,0.4,4.9-1.6,5.9c-7.7,4-6.6,8.7-1.5,14c7.6,3.4,1.5,5.9-0.9,7.2c-7.4,3.9-15.9,5.1-24.1,3.4
	c-5-1-9.9-1.9-14.9-2.8c-9.3-0.8-18.4-1.2-27,4.3c-3.3,2.1-8.3,4.3-11.7,3.3c-4.9-1.4-9.8-0.1-14.8-0.2s-9.7-1-14.2,1.4
	c-1.8,1.1-3.5,2.4-5,3.9c-1.6,1.6-3.3,3.2-5.4,3.9c-1.6,0.5-3.3,0.5-4.8,1.1s-2.8,2.5-2,3.9c-0.7-1.1-14.5,1.5-15.9,1.6
	c-7.6,4.5-11.9,13.5-21.2,15.8l-12.7,3.7l-3.7,3c-3.4,2.9-7,5.7-8.2,10.5s-5.4,5.3-9.5,5.8c-3.2,0.4-6.3,1.2-9.5,1.8h-3.6
	c-1.2,3-1.2,6.3,0.1,9.2c8.3,14.8,22.9,18.6,38,21.3c14.1,2.6,27.9,1.4,40.7-5.9c2.7-1.5,5.2-0.7,7.7,0.5c14.7,6.8,29.6,7.1,45,2.5
	c5.2-1.6,10.4-2.8,15.9-2.4c1.5-6.5,8.2-5.1,12.3-7.5c4.6-2.7,8.2-5.4,10.6-9.9c-0.6-8,4.7-7.2,9.5-6c10,2.4,21.4,2.8,27.6-4.4
	c9.1-10.6,19.5-9.3,30.6-8.9c1.3,0.1,2.7,0,4-0.2l2.8-0.5v-106c-7.2,1.3-14,4.5-20.4,7.9S1877.4,72.9,1881.1,84.3z M1809.5,150.3
	c-1.7,4.8-4.8,0.3-7.2,0.5c-20.3,1.8-42.3-5.9-60.3,9.2c-5.5,4.6-9.1,11.4-16.5,13.8c-0.7,5.5-0.7,11.2-9.1,10.5
	c-3.6-0.3-4.5,4.6-8.5,8.5c0-7.6,4.7-13.7-0.3-19c-0.5-8.8,5.6-12.3,12.5-14.6c5.1-1.7,8.9-3.8,10.6-9.6c1.6-5.1,6.3-7.9,11.9-8.2
	c7.3-0.4,14.4-1.6,20.9-5.2c2.2-1.3,4.6-1.2,7.1-1.3c12.1-0.7,22.8,5.7,34.5,7C1809,142.4,1810.8,146.4,1809.5,150.3z"/>
<path class="st2" d="M1774.2,248.5c-3-0.1-6,0.9-8.8,1.5c-4,0.8-9.1,0.2-10.8-3.4c-4.1-0.5-7.9,1.9-11.9,2.9
	c-7.3,1.8-14.8-1.2-21.7-4.2s-13.6-6.4-20.6-8.9c-5.8-2-11.5-0.1-17.4-1.2c-2.3-0.4-5.5-0.5-5.8-3.4c-0.3-3,2.9-3.5,5-4.3
	c6.8-2.6,13.8-2.6,20.7-1c6.6,1.6,13.5,1.3,19.9-1.1c12-4.4,24.1-7.8,37.1-4.8c3.1,0.7,5.7-1.1,8.6-1.9c2.1-0.5,4.3-1.3,6.3-1
	c10.5,1.6,21-0.4,31.2-2.8c5.4-1.2,10.7-2.5,16.2-3.3c4.7-0.7,9.2-0.5,12.3-4.7c1.6-2.2,2.7-4.8,4.4-6.9c2.7-3.1,6.4-5.2,10.4-5.9
	c4.4-0.9,9.2-0.4,12.8,2.2s5.6,7.7,3.8,11.8c-0.8,1.8-2.2,3.4-2,5.3c0.2,1.6,1.5,2.8,1.9,4.4c1.1,4-4.7,6.2-7.3,8
	c-3.7,2.6-9.1,2.3-11.5,6.9c-6,11.6-15.9,13.2-27.5,11.1c-4.5-0.8-9.3-1.5-11.2,4.5c-0.7,2.3-9.1,4.1-11.2,4.5
	c-3.7,0.6-7.5,0.5-11.2-0.3c-3.5-0.7-6.1-2.6-9.2-3.6C1775.8,248.7,1775,248.5,1774.2,248.5z"/>
<path class="st3" d="M56.3,524.9c1.8-1.3,3.5-1,5.1,0.5c12.8,11.8,26.8,10.2,41.3,3.8c1.6-0.7,3.7-3.2,5.3,0.3
	c5.4,11.9,15.4,11.9,26,9.8c2.4-0.5,4.4-0.9,4.7,2.3c2.2,19,15.1,26.6,32,30c3.1,0.6,4.9,2.1,6.2,5.3c3.6,9.2,10.7,14.4,20.4,16.3
	c-0.6-5.8-8.9-7.7-7.9-13.4c2.4-13.1-5-17.4-15.6-19.7c-1.1-0.1-2.1-0.5-3.1-1c-2.9-1.9-6.2-3.9-5.8-8s2.4-7.8,6.7-9.2
	c3.1-1,6.4-1.8,11.3-3.1c-9.8-3.2-18.7-4.6-25.4-10.8c-0.5-0.4-2,0-2.9,0.4c-16.4,7.5-17.8,7.3-29.7-6.4c-4.4-5.1-10-6.6-15.9-5.8
	c-3.8,0.5-7.2,3.3-10.8,5c-4.4,2-13-0.5-14-4.5c-1.3-5.5,3-7.4,7.1-8.9c1.2-0.4,2.8-0.2,2.2-2.8c-8.7-0.8-17.5-1.7-25.8,2.6
	c-3.1,1.6-5.9,2.5-8.7-0.7c-7-8.3-16.7-12.5-26.5-16.1c-6.1-2.2-14.2-6.1-19-0.5c-5.2,6.2-9.8,12.9-13.8,20v13.8
	C18,534.8,36.5,539.2,56.3,524.9z"/>
<path class="st4" d="M839.2,739.3c0.4,4.3-1.5,8.6-5,11.2c-4.4,3.5-9.5,4.9-14.6,6.5c-4,1.2-5.1,3.4-4.3,7.2
	c0.4,1.6,1.3,3.3,0.9,4.7c-1.2,4-0.9,5.5,0.3,5.9c1.4,0.4,3.7-0.7,5.9-1.5c10.7-4.2,21.6-7.1,33-5.1c0.8,0.1,1.5,0.3,2.3,0.5
	c10,2.3,20.2,5.1,26,14.3c1.4,2.2,2.1,3.2,4.4,3.9c5.1,1.4,8,2.2,9.2,3.6c7.7,2.8,15.5,5.8,23.5,6.8c22.4,2.7,42-10.6,63.3-14.6
	c13.5-2.6,29.7-2.2,43-2.7l1.1-0.2c0.4-2,2.1-3.5,4.2-3.7c0.7,0,1.4,0.1,2.1,0.2c0.7,0.1,1.3,0.2,2,0.2h0.5c0.4-0.1,0.8-0.2,1.2-0.4
	c0.1,0,0.1,0,0.2,0h0.6c1.5,0.1,2.9-0.9,3.3-2.4c4.8-10.7,9.9-14.7,19-14.7c2.5,0,5,0.3,7.4,0.7c0.6,0.1,1.2,0.1,1.8,0.1
	c3,0,5.6-1.3,8.5-4.3c3.9-4.2,8.2-7.9,12.9-11.2c3.2-2.2,5.8-3.2,8.1-3.2c1.3,0,2.5,0.4,3.6,1.1c4.1,2.8,1.8,8.2,0.6,11.1
	c-1.4,3.4-3,6.6-4.6,10.1c-0.6,1.3-1.2,2.6-1.9,3.9h0.8c0.4,0,0.8,0,1.2-0.1c9.1-3.1,17.9-5.8,27.1-5.8c7.3,0,14.5,2,20.8,5.8
	c1.7,1,3.6,1.6,5.6,1.6c4.6,0,9.4-2.9,12.7-7.5c1-1.4,1.3-2.6,1-3.3s-1.3-1.3-2.9-1.6c-4.2-0.8-7.9-2.6-11.5-4.4
	c-1.9-0.9-3.8-1.9-5.7-2.7c-3.5-1.4-6.3-4.1-7.8-7.6c-1.1-2.6-1-5.5,0.2-8.1c3-6.3,11.8-9.1,18.6-9.1c5.3,0,9.7,1.5,12.4,4.3
	c3.2,3.3,6.2,4.9,9.2,4.9c3.3,0,6.5-1.9,9.9-5.9c0.8-0.9,1.6-1.9,2.4-2.9c1.6-1.9,3.2-3.9,4.9-5.7c3.4-3.4,5.7-4.9,7.8-4.9
	c2.9,0,5.2,2.8,7.8,6.9c1,1.6,1.9,3.3,2.9,5c2.4,4.4,4.9,8.9,8.9,12.1c0.7,0.5,2.6,2,3.8,2c0.3,0,0.5-0.1,0.7-0.3
	c0.3-0.3,0.7-1.2,0.7-3.4c-0.4-9.8,4.2-17.4,14.1-23.1c1.7-1,3.4-2.2,4.9-3.4l2.2-1.7h0.1c0.2-0.1,0.4-0.2,0.6-0.3
	c0.9-2.8,1.9-5.5,3.1-8.2c3.4-7.2,0.6-13.1-4.8-17.1c-5.9-4.4-12.6-7.9-20.5-9.1c3.1,9.5,1.7,14.8-5.4,18.6
	c-4.9,2.8-10.4,4.5-16.1,5.1c-20.4,1.7-39.3-4.5-58-11.3c-24.7-9-48.7-10.8-71,6.3c-5.4,4.1-9.9,4-15.3-0.1
	c-7.1-5.5-16.4-7.5-25.1-5.3c-7.5,1.7-15.3,2.2-23,1.4c-12.8-1.1-26.2,0.7-35.5,11.2c-3.5,4-6.3,4.3-11,3.6
	c-18.2-2.5-35.8-2-47.7,15.3c-2.6,3.7-6.3,3.7-10.2,3s-7.3-2-11-2.5c-8.3-1.1-17.2-0.8-21.7,6.9c-5.5,9.6-14.1,11.8-23.4,13.3
	C849.5,739.9,844.3,739.3,839.2,739.3C839.2,739.3,839.2,739.3,839.2,739.3z"/>
<path class="st2" d="M32.8,490.7c9.8,3.6,19.5,7.7,26.5,16.1c2.7,3.2,5.5,2.3,8.7,0.7c8.3-4.2,17.1-3.3,25.8-2.6
	c0.6,2.5-1,2.4-2.2,2.8c-4.2,1.5-8.4,3.4-7.1,8.9c1,4,9.5,6.6,14,4.5c3.6-1.7,7-4.5,10.8-5c5.9-0.8,11.5,0.7,15.9,5.8
	c11.9,13.8,13.3,14,29.7,6.4c0.9-0.4,2.4-0.8,2.9-0.4c6.6,6.2,15.5,7.6,25.3,10.8c-4.9,1.3-8.2,2-11.3,3.1c-4.3,1.5-6.3,5-6.7,9.2
	c-0.4,4.2,2.9,6.1,5.8,8c0.9,0.5,2,0.9,3,1c10.6,2.2,18,6.5,15.6,19.7c-1.1,5.7,7.3,7.7,7.9,13.4c0,0,0.1,0,0.1,0
	c2.8,1.1,5.6,1.9,8.5,2.5c8.7,1.8,17.7,1.5,26.3-0.9c1.4-0.4,2.5-0.7,3.5-0.6c1,0.1,2,0.8,3,2.5c10.1,15.8,23.9,25.5,41.2,29.1
	c4,0.8,8.1,1.4,12.4,1.6c1.7,0.1,4.1-0.4,5.9-0.1c1.4,0.2,2.4,0.9,2.4,2.6c0.1,4.2-5.6,3.3-8.6,3.7c-5.3,0.6-10.5,0-15.6-1.1
	c-4.4-0.9-8.7-2.3-13-3.7c-5.6-1.8-11.2-3.8-16.8-5c-5.7-1.2-11.5-1.6-17.7-0.4c-2.4,0.5-4.9,0.1-7.4-0.5c-2.6-0.6-5.1-1.5-7.7-2.1
	c-0.4-0.1-0.7-0.2-1.1-0.2c-5.8-1.2-11.3-1.5-16.7,1.9c-1,0.6-1.7,0.8-2.3,0.7c-1.8-0.2-2.2-2.8-3.2-4.1
	c-4.7-6.3-10.1-11.3-17.9-13.6c-2.6-0.8-5.5-1.2-8.6-1.4c4.6,4.3,8.2,7.4,11.5,10.8c2.1,2.2,6.8,7.2,4.8,10.4
	c-1.3,2.1-3.7,3-5.8,4.2c-2.1,1.2-4.1,3.5-3.4,5.8c0.3,1,1,1.7,1.2,2.7c0.6,2.5-2.4,4.7-2.1,7.3c0.2,1.7,1.8,3,3.5,3.3
	c1.7,0.3,3.4,0.3,5.2,0.1c6.4-0.2,12.5,2.3,18.8,3.9c14.9,3.8,30.6,2.1,45.4-1.8c4.6-1.2,9.1-2.7,13.8-3.1c4.7-0.4,9.7,0.2,13.6,2.8
	c-2,2.5-5,3.9-7.3,6.1c-2.3,2.2-3.9,5.9-2.1,8.5c2,3,6.5,2.6,10,1.8l5-1.1c10.1-2.2,21.1-4.4,30.4,0c2.7,1.3,4.8,3.1,6.8,5.1
	c0.2,0,0.4,0.1,0.6,0.1c10.4-4.1,20.8-0.1,30.9,0.9c15.4,1.5,30.5,5.8,46.2,5.8c2.5,0,4.3,0.1,5.5,3.2c3.2,8.2,10.8,12,19.8,10.3
	c5.5-1,11.3-0.4,16.4,1.9c16.2,6.8,32.6,7,47.7-3.2c10.1-6.8,20.7-10.8,32.9-10.7c3,0,5.8-0.2,6.5,4.1s4.8,6.2,8.2,8.4
	s5.8,4,2.5,8.8c-3,4.3,1,11.2,7.1,10.4c14.4-1.8,26.3,4.5,39,8.8c10.1,3.5,22.1,4.2,31,0.5c9.3-3.8,15.8-1.4,23.8,0.4
	c5.7,1.3,11.6-0.9,15.1-5.6c2.8-3.8,6.6-4.2,10.6-5.6c8.1-2.8,13.7-2.6,20.9,2.9c3.8,2.9,11.5,0.6,17.4,0.7c2.7,0,5.6-0.7,7.8,1.4
	c10.1,9.8,22.3,13.4,36,13.4c2.4,0,4.7,0.8,7.1,1.3c3.8-4.9,8.5-7.9,13.8-9.6c3.2-1,6.7-1.6,10.3-1.7c8.1-0.3,16.2-1.2,24.1,0.8
	c8.2,2.1,15.8,6.1,18.2,15.2c1.2,4.3,3.2,4.9,7,3.6c6.6-2.2,13.2-2.8,19.4,1.4c0,0,0,0,0,0c5.1,0,10.3,0.6,15.2-0.3
	c9.2-1.6,17.8-3.8,23.4-13.3c4.5-7.8,13.4-8,21.7-6.9c3.7,0.5,7.3,1.8,11,2.5s7.6,0.7,10.2-3c12-17.3,29.5-17.8,47.7-15.3
	c4.7,0.7,7.5,0.3,11-3.6c9.4-10.5,22.7-12.3,35.5-11.2c7.7,0.8,15.5,0.3,23-1.4c8.7-2.2,18-0.2,25.1,5.3c5.4,4,9.9,4.2,15.3,0.1
	c22.3-17.1,46.3-15.3,71-6.3c18.7,6.9,37.6,13,58,11.3c5.6-0.6,11.1-2.3,16.1-5.1c7.1-3.8,8.5-9.1,5.4-18.6
	c7.9,1.2,14.6,4.7,20.5,9.1c5.4,4,8.2,9.9,4.7,17.1c-1.2,2.7-2.2,5.4-3.1,8.2c2.4-1.1,4.9-2.2,7.3-3.4c12.8-6,26.1-12.1,40.2-15.7
	c9-2.2,18.6-4.5,28.6-5.3c13.7-1.1,20.5-7,23.7-20.1c0.6-2.3,1.5-3.3,3.1-3.3c0.5,0,1,0.1,1.5,0.2l1.1,0.1l1,0.1
	c2.9,0.3,5.9,0.5,8.9,0.6c3.9,0.1,7.8-0.7,11.3-2.3l1-0.5c2.4-1.1,5.1-2.4,6-4.2c3.1-6.5,7.2-9.5,13-9.5c2.8,0.1,5.7,0.6,8.4,1.5
	c1.6,0.5,3.2,0.8,4.8,0.8c5-0.1,9.8-2.4,13-6.2c0.9-1.2,2.3-2,3.8-2.1c1.4,0.1,2.7,0.6,3.8,1.5c2.2,1.4,4.4,2.8,6.5,4.2
	c1,0.6,1.9,1.2,2.9,1.9c0.1,0.1,0.2,0.1,0.2,0.2l0.1,0.4c15.3,5.2,30.8,7.6,46.6,2c1.8-0.6,3.8-0.3,5.4,0.8
	c5.4,3.5,11.7,4.7,17.7,6.6l0.9-0.2h0.1l6.6,0.2h0.1l1.4,0.3l13.8-1.4c0.1-0.1,0.2-0.3,0.4-0.4c0.1-0.1,0.2-0.2,0.3-0.2l1.6-0.3h0.1
	c0.2,0,0.3,0.1,0.4,0.2l0.1,0.1c7.4-3.6,15.9-5.7,20.4-13.7c1.4-2.4,3-1.4,4.7-0.8c4.3,1.6,8.5,3.2,12.8,4.8l0.2-0.2
	c0.1-0.1,0.2-0.1,0.3-0.1h0.1l8,1.5c0.7,0,1.4,0,2.2,0c3.9,0.1,7.8,0.3,11.6,0.8c3.8,0.5,7.7,0.8,11.6,0.8c3,0,6-0.3,8.9-0.9
	c6.2-1.5,12.3-3.6,18.1-6.2c0.5-0.2,1.1-0.5,1.7-0.8c1.7-0.8,3.5-1.8,5.2-1.8c1.6,0,3,1,3.6,2.5c0.6,1,0.7,2.2,0.3,3.3
	c-0.7,2-3.2,3.2-5.3,4.2c-0.6,0.3-1.2,0.6-1.7,0.8c-9.6,5.3-20.4,6.4-30.8,7.5c-2.5,0.2-5,0.5-7.6,0.8c-5,1.8-9.9,3.9-14.6,6.4
	c-6.6,3.3-13.4,6.6-20.9,8.1c-1.6,0.4-3.5,1.2-3.8,2c-1.6,4-3.8,5.8-6.8,5.8c-2.1-0.1-4.1-0.6-6-1.4c-0.9-0.3-1.8-0.6-2.7-0.9
	c-5-1.5-10.3-2.3-15.5-2.3c-4.7-0.1-9.4,0.8-13.7,2.9c1.9,0.3,3.7,0.6,5.5,0.9c4.9,0.8,9.5,1.5,14.1,2.5c5.4,1.2,8.2,2.8,9.2,5
	s0.3,5.2-2.2,9.6c-1,1.8-1.3,3.2-0.9,4s1.6,1.4,3.7,1.7h0.2c7.3,1.1,14.3,2.2,18,10.5c0.4,1,1.3,1.6,2.3,1.5c1.3-0.1,2.6-0.4,3.9-1
	c0.4-0.1,0.8-0.3,1.2-0.4c9.1-2.9,17.2-7.9,25-12.8c2.9-1.8,6-3.7,9-5.5l3-1.8c6.1-3.6,12.5-7.3,19.5-9.2c2.1-0.6,4.2-0.9,6.4-0.9
	c4.8,0,9.3,1.9,12.7,5.3c4.5,4.3,8.6,6.3,12.5,6.3c4.1,0,8.1-2.1,12.7-6.7c3.3-3.1,6.2-6.6,8.8-10.4c4.6-7.3,11.4-10.9,20.6-10.9
	c2.6,0,5.2,0.3,7.8,0.7c5.3,0.9,10.6,1.4,16,1.4c16.6,0,33.5-4.4,53.2-13.9c0.9-0.5,1.8-1,2.6-1.5c2.3-1.3,4.6-2.7,7.5-2.7
	c0.5,0,0.9,0,1.4,0.1c0,0,0,0,0,0c0.1-0.2,0.3-0.4,0.6-0.4c0,0.2,0.1,0.4,0,0.5c-0.1,0.1-0.2,0.1-0.3,0.1c0,0,0,0,0.1,0.1
	c0.1,0.2,0.1,0.3,0,0.5c-1.1,1.9-2.3,3.8-3.7,5.5c-2,2.4-3.6,5.2-4.8,8.1c-1.9,5.1-1.5,9,1.3,12.5c0.8,1.1,2,2.3,2.7,2.3
	s1.4-1,2.3-3c7.9-18,22.9-29.2,45.8-34.1c7.2-1.5,14.5-2.3,21.9-2.3c8.9,0,17.8,1.1,26.4,3.4c10.4,2.7,18.9,3.9,26.8,3.9
	c1.4,0,2.7,0,4-0.1V547c-18.8-0.8-35.5,4.8-49.7,18.8c-0.3,0.3-1,0.3-1.5,0.4c-1.2-12.5,7-23.7,20.5-27.6c3.2-0.9,7.1-1.3,7.2-5.1
	c0.1-3.4-3.3-5.2-6.3-6.5c-16.9-7.7-34.1-6.2-51.3-1.7c-6.3,1.8-11.7,6-15.1,11.6c-7.3,11.8-19.2,13-30.5,12.3
	c-14.9-0.9-29.5-5.8-44.4-6.8c-17.8-1.1-36-4.2-53.4,3.5c-8,3.5-12.7,9.8-13.4,17.7c-0.9,9.5,7.1,13.7,14.3,17.7
	c1.8,1,5.1-0.3,5.5,2.3c0.4,3-2.6,4.6-4.7,6c-12.1,7.8-25.3,8.1-38.7,4.9c-3.1-0.7-6.4-1.1-9.6-1.1c-11.6,0-12.6,0.7-12.4,12.4
	c0.1,6.7-2.2,9-9,8.8c-16.1-0.5-32.4-1.5-47.6,6c-3.3,1.7-6.8,3.1-10.6,4.8c-1.3-3.8,2.2-5.2,3.7-7.2c10.7-13.5,22.3-26.1,38.4-33.4
	c2.8-1.3,3.8-3.5,4.7-6.1c7.8-20.5,22.3-30.7,44.2-30.5c4.8,0.2,9.5-1.6,12.9-5c10.9-9.8,24.8-12.5,38.7-14.4
	c25.2-3.4,50.8-4.1,75.9-8.2c4-0.7,7.7-2.2,11.6-3.2c2.7-0.7,4-2.8,4.6-5.2c3-11.6,7.9-15.6,20-15.9c8.9-0.2,17.2,1.5,26,3.8
	c14.2,3.7,29.3,4,44,1.8c8.1-1.2,16.8-0.5,23.8-6.2c0.8-0.6,1.5-1.3,2.2-1.9V385.1c-16.1,5.3-30.6,16.3-37.3,28.3
	c-3.3,6-8.4,9-15.3,8.3c-7.2-0.7-14.6-1.5-20.9-5.2c-15.9-9.5-31.8-7-48-1.2l-1.7,8.1c0.2,0.5,0.5,0.9,0.7,1.4
	c5.2,12.9,3.5,15.2-10.8,12.9c-5.2-0.9-10.5-1.3-15.8-1.4c-6.3-0.9-11.7,3-17.8,3.3c-6,6-11.7,12.4-21.1,13
	c-4.6,2.1-9.6,3.1-14.6,3.1c-9.6,0.3-19.2,0.4-27.8,5.7c-2.4,1.5-5.3,1.2-7.9,0.5c-10.8-3.1-21.3-0.8-31.6,2.2
	c-5.1,1.3-9,5.6-9.9,10.8c-1.3,9.3-5.1,18.8-0.4,28.2c1.6,3.2-1.2,2.9-2.7,3.4c-6.7,2.6-13.5,5.1-20.2,7.7l-6.4,3.3
	c-2.2,2.5-3.7,6.7-8.2,3.3l-3.1,1.6c-0.2,4.1-3.8,4.8-6.5,6.3c-11.3,6.5-23.1,10.8-36.5,9.8c-15-1.1-29.8,0.9-44.6,3.1l-9.7,1.8
	c-2.5,3.3-6.7,3-10.1,4.2c-8.7,3.1-17,7.4-24.5,12.8c-2.3,1.6-4.4,4-7.6,4.1l-3.3,3.2c-3,3.5-5.1,7.8-9.6,9.8l-0.1-0.1
	c-1,6-3.6,8.8-10.5,7.3c-14-3.1-27,0.6-37.7,9.9c-6.5,5.6-12.5,7-21.1,6c-25.5-3-49.9,2.4-73.1,13.2c-10.7,5-21.6,9.9-31.7,16.2
	c-15.1,9.4-31.6,13.7-48.9,15.2c-19.6,1.7-39.2,2.4-58.8-1.3c-11.4-2.2-21.5-8.5-33.1-10.2c-39.8-5.8-79-4.5-117.4,8.1
	c-4.4,1.5-7.1,1.3-11.1-2.3c-12-10.8-27.6-12.9-42.8-14.7c-8.5-1-17.2-0.5-25.9-0.4c-3.4,0-5.1-0.8-4.7-4.5c0.8-6.9-3.7-10.4-9-13
	c-17.1-8.6-35.1-13.5-54.4-13.3c-5.4,0.1-10.8-0.1-16.2-0.1c-3.1-0.6-6.2-1.1-9.3-1.5c-3.3-0.2-3.8-2.2-3.8-4.8
	c-5.5-1.2-7.4-6.7-11.2-9.9c-1.1-0.6-1.8-1.9-1.7-3.2c-3.6-1-6.8-2.5-8.1-6.5c-5.2,0.8-8.2-4.3-12.8-5c-6.7-5.2-15.8-5-22.7-9.7
	c-7-1.6-14.5-1.1-21.1-4.7c-8.2,0.8-16.2-1.3-24.3-1.7h-16.2l-9.7,0.1c-10,3.2-20.7,2.4-30.8,4.8c-9.9,8.4-16.4,8.9-22.8,1.7
	c-8.8-1.6-16.7-6.7-25.8-6.7c-2.8,0.4-5.7-0.1-8.1-1.6c-19.7-0.4-39.3-0.4-58.4,4.9c-8.5,2.3-17,4.3-24.8,8.8
	c-16.6,9.5-34.1,7.6-51.1,1.3c-4.3-1.6-9.6-1.6-13.2-5.3c-2.2,0.1-4.1-1.2-4.9-3.2c-12.6-6.4-23.3-15.6-34.6-23.9
	c-11.7-8.7-24.8-14.4-39.9-13.6c-8.1-0.2-16.3,0.4-24.3,1.7c-9.3,0.7-17.3,5.5-25.9,8.3c-3.7,3.6-9.3,1.6-11.9-4.5
	c-2.1-5.1-1.6-10.4-0.1-15.6c1-3.5,2.6-7,2.3-10.8c0.9-5.9-3.1-10.1-6.6-13.2c-15.8-13.6-34.1-22-55.1-24.2
	c-10.4-1.1-20.8-2.8-31.2-0.1c-2.2,0.6-4.1-0.5-5.8-2c-20.2-18.3-44.6-20-70.1-17.6c-11.8,1-23.3,4.2-34,9.4c-4.1,2-8.8,4-11,8
	c-4.2,7.6-10.7,7.3-17.9,7.5c-19.8,0.4-39.6,2.5-57.2,13.2c-1.3,1-3,1.3-4.6,0.9c-11.6-3.5-23.3-4.5-35-4.4v39.6
	c4-7.1,8.6-13.8,13.8-20C18.6,484.5,26.7,488.5,32.8,490.7z M596,646.8c4-6.1,10-9.9,16.6-12.3c13.8-4.9,28.1-7.3,42.8-5.5
	c6.8,0.8,12.7-0.1,18.8-4.6c16-11.6,34.8-15.3,54.2-16c5-0.2,9.2-1.1,13.5-4c18.1-12.3,61-10.4,76.5,7.1c2.7,3.1,5.5,3.3,9.4,2.5
	c23.6-5.1,57.7-0.5,76.3,10.9c-11.4-2.2-20.8-3.9-30.2-5.8c-15.2-3.1-29.5-0.9-42.3,8.2c-2.4,1.7-4.2,1.3-6.7,0.4
	c-13.9-5.3-27.3-6.3-39.2,4.8c-2.4,2.2-4,1.8-5.9-0.7c-13.2-16.8-32.3-18.3-51.2-18.1c-12,0.1-24.1,3-34.2,10.7
	c-3,2.3-6.8,4.4-7.8,8c-2.1,7-6.8,6.6-12.4,6.5c-11.2-0.1-22.5,0.2-28.4,12.3c-1.4,2.8-3.1,1.1-4.8,0.7c-14-3.9-28-5.8-42.1-0.6
	c-1.2,0.5-2.8,1-3.8-0.2C594,649.6,595.2,648,596,646.8z M347,601.7c11.6-2.1,21.9-6.4,26.6-18.3c1.3-3.5,3.8-2.5,5.9-2.4
	c10.2,0.2,19.3-2.7,26.3-10.3c2.6-2.9,5-2,7.9-1.1c12.1,3.5,24.3,5,36.4-0.1c1.2-0.5,2.5-1.7,3.7-0.5c1.7,1.8,0.2,3.7-0.8,5.1
	c-6,8.5-15.5,11.3-24.7,14.3c-2.5,0.8-5.3,1.8-7.9,1.5c-20.9-2.4-39.1,5.6-57.9,13.1c-12.8,5.1-27,5.1-40.9,4.8c0-0.7-0.1-1.4-0.1-2
	C330.1,604.3,338.6,603.2,347,601.7z"/>
</svg>
